<?xml version="1.0" encoding="UTF-8" standalone="no"?>
<!DOCTYPE svg PUBLIC "-//W3C//DTD SVG 1.1//EN" "http://www.w3.org/Graphics/SVG/1.1/DTD/svg11.dtd">
<svg width="100%" height="100%" viewBox="0 0 143 81" version="1.1" xmlns="http://www.w3.org/2000/svg" xmlns:xlink="http://www.w3.org/1999/xlink" xml:space="preserve" xmlns:serif="http://www.serif.com/" style="fill-rule:evenodd;clip-rule:evenodd;stroke-linejoin:round;stroke-miterlimit:2;">
    <g transform="matrix(1,0,0,1,-2814.68,265.66)">
        <g transform="matrix(1.14463,0,0,1,-350.421,-99.1748)">
            <g transform="matrix(32.3248,0,0,37,2795.04,-114.601)">
                <path d="M0.328,-0.541C0.327,-0.529 0.326,-0.517 0.326,-0.504C0.326,-0.48 0.325,-0.458 0.322,-0.439C0.319,-0.42 0.318,-0.406 0.317,-0.4C0.316,-0.393 0.315,-0.386 0.314,-0.379L0.314,-0.372C0.314,-0.36 0.311,-0.348 0.306,-0.336L0.303,-0.291L0.299,-0.196L0.299,-0.146C0.299,-0.121 0.298,-0.107 0.295,-0.105L0.296,-0.079L0.296,-0.068L0.295,-0.056C0.295,-0.053 0.294,-0.052 0.293,-0.052C0.294,-0.044 0.291,-0.035 0.283,-0.027C0.276,-0.018 0.266,-0.012 0.255,-0.009L0.237,-0.006C0.234,-0.006 0.231,-0.006 0.226,-0.006C0.221,-0.005 0.217,-0.006 0.214,-0.007C0.211,-0.008 0.207,-0.01 0.204,-0.012C0.197,-0.016 0.193,-0.024 0.19,-0.035C0.188,-0.038 0.184,-0.059 0.178,-0.096C0.178,-0.104 0.177,-0.114 0.176,-0.126L0.179,-0.15L0.179,-0.169C0.179,-0.181 0.18,-0.189 0.183,-0.194C0.18,-0.198 0.182,-0.207 0.188,-0.22C0.183,-0.226 0.184,-0.239 0.189,-0.26C0.186,-0.269 0.186,-0.274 0.189,-0.277C0.19,-0.281 0.191,-0.29 0.191,-0.305L0.192,-0.315C0.192,-0.334 0.194,-0.352 0.198,-0.368C0.197,-0.37 0.197,-0.375 0.198,-0.384C0.199,-0.393 0.2,-0.403 0.201,-0.415L0.201,-0.422C0.202,-0.432 0.202,-0.443 0.202,-0.454L0.203,-0.463C0.203,-0.467 0.204,-0.475 0.205,-0.487C0.207,-0.499 0.209,-0.512 0.21,-0.525L0.208,-0.525C0.137,-0.506 0.094,-0.496 0.078,-0.496L0.061,-0.495C0.051,-0.495 0.041,-0.497 0.03,-0.5C0.025,-0.503 0.021,-0.51 0.018,-0.521C0.018,-0.543 0.023,-0.559 0.033,-0.569C0.042,-0.579 0.06,-0.588 0.087,-0.597C0.094,-0.598 0.135,-0.612 0.211,-0.639L0.254,-0.649C0.262,-0.652 0.275,-0.653 0.292,-0.653C0.309,-0.653 0.324,-0.655 0.336,-0.66C0.347,-0.664 0.36,-0.667 0.374,-0.67C0.388,-0.672 0.403,-0.674 0.418,-0.677C0.425,-0.68 0.439,-0.679 0.458,-0.675C0.465,-0.675 0.477,-0.667 0.493,-0.652L0.499,-0.638C0.499,-0.634 0.5,-0.631 0.502,-0.629C0.505,-0.611 0.501,-0.599 0.49,-0.594C0.486,-0.592 0.479,-0.589 0.469,-0.586C0.456,-0.586 0.422,-0.579 0.369,-0.566C0.366,-0.566 0.353,-0.564 0.329,-0.56L0.328,-0.547L0.328,-0.541Z" style="fill:rgb(234,58,105);fill-rule:nonzero;"/>
                <path d="M0.412,-0.703C0.423,-0.706 0.44,-0.706 0.463,-0.701L0.463,-0.701C0.475,-0.699 0.492,-0.691 0.512,-0.672C0.514,-0.669 0.516,-0.666 0.518,-0.663L0.524,-0.649C0.525,-0.646 0.525,-0.644 0.526,-0.642C0.527,-0.639 0.528,-0.636 0.529,-0.633C0.534,-0.6 0.522,-0.58 0.502,-0.57C0.497,-0.567 0.489,-0.564 0.478,-0.56C0.475,-0.559 0.472,-0.559 0.469,-0.559C0.457,-0.559 0.425,-0.552 0.376,-0.54C0.373,-0.539 0.371,-0.539 0.369,-0.539C0.369,-0.539 0.37,-0.539 0.37,-0.539C0.37,-0.539 0.364,-0.538 0.355,-0.537C0.354,-0.526 0.353,-0.515 0.353,-0.504C0.353,-0.479 0.352,-0.456 0.349,-0.435C0.346,-0.417 0.345,-0.404 0.344,-0.397C0.343,-0.39 0.342,-0.383 0.341,-0.377L0.341,-0.372C0.341,-0.358 0.338,-0.344 0.333,-0.33L0.33,-0.29L0.326,-0.195L0.326,-0.146C0.326,-0.122 0.324,-0.106 0.322,-0.1L0.323,-0.08L0.323,-0.068L0.322,-0.054C0.322,-0.051 0.321,-0.047 0.32,-0.044C0.319,-0.033 0.314,-0.021 0.304,-0.009C0.293,0.005 0.278,0.013 0.261,0.017L0.241,0.021L0.228,0.021C0.219,0.022 0.211,0.021 0.204,0.018C0.199,0.016 0.195,0.014 0.19,0.011C0.179,0.004 0.169,-0.008 0.164,-0.026C0.164,-0.028 0.163,-0.03 0.163,-0.032C0.16,-0.04 0.156,-0.06 0.151,-0.092C0.151,-0.093 0.151,-0.095 0.151,-0.096C0.151,-0.103 0.15,-0.112 0.149,-0.123C0.149,-0.125 0.149,-0.127 0.149,-0.129L0.152,-0.152L0.152,-0.169C0.152,-0.18 0.153,-0.188 0.155,-0.195C0.155,-0.196 0.155,-0.197 0.155,-0.199C0.155,-0.204 0.156,-0.211 0.159,-0.22C0.158,-0.223 0.158,-0.226 0.158,-0.229C0.157,-0.237 0.158,-0.247 0.161,-0.26C0.159,-0.271 0.16,-0.279 0.163,-0.286C0.163,-0.289 0.164,-0.297 0.164,-0.305L0.165,-0.316C0.165,-0.335 0.167,-0.353 0.171,-0.369C0.17,-0.375 0.17,-0.381 0.171,-0.388C0.172,-0.396 0.173,-0.405 0.174,-0.416L0.174,-0.424C0.175,-0.433 0.175,-0.443 0.175,-0.454L0.176,-0.465C0.176,-0.47 0.177,-0.478 0.179,-0.489C0.127,-0.476 0.094,-0.469 0.079,-0.469L0.061,-0.468C0.048,-0.468 0.035,-0.47 0.022,-0.474C0.021,-0.475 0.019,-0.475 0.018,-0.476C0.008,-0.481 -0.003,-0.493 -0.008,-0.515C-0.009,-0.517 -0.009,-0.519 -0.009,-0.521C-0.009,-0.552 0,-0.574 0.013,-0.588C0.025,-0.6 0.046,-0.612 0.079,-0.623C0.08,-0.623 0.082,-0.624 0.084,-0.624C0.084,-0.624 0.084,-0.624 0.084,-0.624C0.084,-0.624 0.135,-0.64 0.202,-0.664C0.203,-0.665 0.204,-0.665 0.205,-0.665L0.247,-0.675C0.257,-0.678 0.272,-0.68 0.292,-0.68C0.306,-0.68 0.317,-0.681 0.326,-0.685C0.339,-0.69 0.354,-0.694 0.37,-0.696C0.383,-0.698 0.397,-0.701 0.412,-0.703ZM0.328,-0.541C0.327,-0.529 0.326,-0.517 0.326,-0.504C0.326,-0.48 0.325,-0.458 0.322,-0.439C0.319,-0.42 0.318,-0.407 0.317,-0.399C0.316,-0.393 0.315,-0.386 0.314,-0.379L0.314,-0.372C0.314,-0.36 0.311,-0.348 0.306,-0.336L0.303,-0.291L0.299,-0.196L0.299,-0.146C0.299,-0.121 0.298,-0.107 0.295,-0.105L0.296,-0.079L0.296,-0.068L0.295,-0.056C0.295,-0.053 0.294,-0.052 0.293,-0.052C0.294,-0.044 0.291,-0.035 0.284,-0.027C0.276,-0.018 0.266,-0.012 0.255,-0.009L0.237,-0.006C0.234,-0.006 0.231,-0.006 0.226,-0.005C0.221,-0.005 0.217,-0.006 0.214,-0.007C0.211,-0.008 0.207,-0.01 0.204,-0.012C0.197,-0.016 0.193,-0.024 0.19,-0.035C0.188,-0.038 0.184,-0.059 0.178,-0.096C0.178,-0.104 0.177,-0.114 0.176,-0.126L0.179,-0.15L0.179,-0.169C0.179,-0.181 0.18,-0.189 0.183,-0.194C0.18,-0.198 0.182,-0.207 0.188,-0.22C0.183,-0.226 0.184,-0.239 0.189,-0.26C0.186,-0.269 0.186,-0.274 0.189,-0.277C0.19,-0.281 0.191,-0.29 0.191,-0.305L0.192,-0.315C0.192,-0.334 0.194,-0.352 0.198,-0.368C0.197,-0.37 0.197,-0.375 0.198,-0.384C0.199,-0.393 0.2,-0.403 0.201,-0.415L0.201,-0.422C0.202,-0.432 0.202,-0.443 0.202,-0.454L0.203,-0.463C0.203,-0.467 0.204,-0.475 0.206,-0.487C0.207,-0.499 0.209,-0.512 0.21,-0.525L0.208,-0.525C0.137,-0.506 0.094,-0.496 0.078,-0.496L0.061,-0.495C0.051,-0.495 0.041,-0.497 0.03,-0.5C0.025,-0.503 0.021,-0.51 0.018,-0.521C0.018,-0.543 0.023,-0.559 0.032,-0.569C0.042,-0.579 0.06,-0.588 0.087,-0.597C0.094,-0.598 0.135,-0.612 0.211,-0.639L0.254,-0.649C0.262,-0.652 0.275,-0.653 0.292,-0.653C0.309,-0.653 0.324,-0.655 0.336,-0.659C0.347,-0.664 0.36,-0.667 0.374,-0.67C0.388,-0.672 0.403,-0.674 0.418,-0.677C0.425,-0.68 0.439,-0.679 0.458,-0.675C0.465,-0.675 0.477,-0.667 0.493,-0.652L0.499,-0.638C0.499,-0.634 0.5,-0.631 0.502,-0.629C0.505,-0.611 0.501,-0.599 0.49,-0.594C0.486,-0.592 0.479,-0.589 0.469,-0.586C0.456,-0.586 0.422,-0.579 0.369,-0.566C0.366,-0.566 0.353,-0.564 0.329,-0.56L0.328,-0.547L0.328,-0.541ZM0.521,-0.648L0.524,-0.645L0.521,-0.648Z" style="fill:white;"/>
            </g>
            <g transform="matrix(32.3248,0,0,37,2809.46,-114.601)">
                <path d="M0.366,-0.277L0.367,-0.258C0.367,-0.256 0.369,-0.235 0.373,-0.195L0.373,-0.183C0.373,-0.167 0.376,-0.143 0.381,-0.111C0.381,-0.097 0.388,-0.073 0.402,-0.038C0.405,-0.036 0.408,-0.031 0.409,-0.024L0.408,-0.014C0.409,-0.011 0.408,-0.007 0.403,-0.003C0.403,0.002 0.397,0.004 0.384,0.004C0.371,0.004 0.363,0.005 0.36,0.006C0.357,0.007 0.351,0.007 0.344,0.004C0.341,0.005 0.333,0.003 0.32,-0.004C0.314,-0.005 0.309,-0.011 0.306,-0.022L0.298,-0.041C0.298,-0.053 0.295,-0.064 0.288,-0.073C0.288,-0.076 0.286,-0.082 0.283,-0.091C0.281,-0.1 0.278,-0.104 0.277,-0.105C0.27,-0.078 0.262,-0.058 0.252,-0.043C0.252,-0.04 0.25,-0.036 0.246,-0.031L0.236,-0.012C0.236,-0.011 0.233,-0.007 0.227,-0.001C0.223,0.008 0.214,0.012 0.2,0.012C0.187,0.012 0.172,0.009 0.154,0.002C0.149,0.001 0.14,-0.002 0.126,-0.007C0.122,-0.006 0.116,-0.008 0.108,-0.011C0.099,-0.014 0.094,-0.015 0.093,-0.015C0.091,-0.017 0.086,-0.02 0.079,-0.025L0.062,-0.043C0.061,-0.044 0.06,-0.047 0.059,-0.053C0.057,-0.058 0.056,-0.062 0.057,-0.065C0.058,-0.067 0.058,-0.07 0.057,-0.075C0.056,-0.08 0.057,-0.084 0.058,-0.089C0.058,-0.102 0.059,-0.117 0.062,-0.133C0.061,-0.135 0.061,-0.137 0.061,-0.14C0.061,-0.143 0.062,-0.148 0.065,-0.155C0.064,-0.158 0.064,-0.161 0.064,-0.162L0.069,-0.201C0.069,-0.21 0.069,-0.217 0.07,-0.221L0.07,-0.236C0.071,-0.239 0.071,-0.242 0.071,-0.247L0.076,-0.295C0.076,-0.302 0.076,-0.307 0.077,-0.309L0.077,-0.319C0.078,-0.32 0.079,-0.326 0.079,-0.335L0.088,-0.363L0.095,-0.375C0.096,-0.378 0.099,-0.381 0.106,-0.384C0.117,-0.391 0.132,-0.394 0.152,-0.394C0.16,-0.393 0.169,-0.389 0.178,-0.384C0.18,-0.385 0.185,-0.383 0.192,-0.38C0.205,-0.374 0.206,-0.357 0.194,-0.329C0.191,-0.311 0.19,-0.302 0.19,-0.301C0.187,-0.296 0.186,-0.291 0.186,-0.288C0.182,-0.267 0.18,-0.255 0.18,-0.254C0.183,-0.257 0.182,-0.253 0.177,-0.242L0.173,-0.205C0.168,-0.189 0.166,-0.171 0.167,-0.152L0.163,-0.139C0.164,-0.136 0.163,-0.125 0.162,-0.108C0.163,-0.106 0.164,-0.104 0.164,-0.101L0.165,-0.093C0.164,-0.091 0.165,-0.089 0.166,-0.087C0.167,-0.086 0.171,-0.085 0.178,-0.086C0.184,-0.086 0.189,-0.087 0.194,-0.09C0.203,-0.101 0.21,-0.113 0.213,-0.126C0.216,-0.138 0.218,-0.145 0.218,-0.147C0.229,-0.176 0.236,-0.192 0.239,-0.197C0.242,-0.215 0.248,-0.236 0.256,-0.259C0.255,-0.262 0.255,-0.269 0.256,-0.279L0.269,-0.332C0.275,-0.342 0.278,-0.348 0.278,-0.35C0.278,-0.353 0.282,-0.362 0.29,-0.378C0.29,-0.381 0.292,-0.386 0.296,-0.394C0.301,-0.401 0.309,-0.408 0.321,-0.415L0.324,-0.415C0.339,-0.416 0.351,-0.414 0.362,-0.409C0.363,-0.406 0.364,-0.402 0.364,-0.395C0.365,-0.388 0.367,-0.376 0.368,-0.359L0.368,-0.349L0.364,-0.327C0.369,-0.31 0.37,-0.294 0.366,-0.277Z" style="fill:rgb(234,58,105);fill-rule:nonzero;"/>
                <path d="M0.323,-0.442C0.343,-0.444 0.36,-0.44 0.374,-0.433C0.379,-0.431 0.384,-0.426 0.386,-0.421C0.388,-0.416 0.391,-0.409 0.391,-0.398C0.392,-0.39 0.394,-0.378 0.395,-0.361L0.395,-0.349C0.395,-0.347 0.395,-0.346 0.395,-0.344L0.392,-0.328C0.396,-0.31 0.397,-0.293 0.393,-0.275L0.394,-0.258C0.394,-0.258 0.394,-0.259 0.394,-0.259C0.394,-0.259 0.396,-0.233 0.4,-0.198L0.4,-0.183C0.4,-0.168 0.403,-0.145 0.408,-0.115C0.408,-0.114 0.408,-0.112 0.408,-0.111C0.408,-0.1 0.414,-0.08 0.425,-0.053C0.43,-0.048 0.434,-0.04 0.436,-0.029C0.436,-0.026 0.436,-0.024 0.436,-0.021L0.435,-0.016C0.437,-0.007 0.434,0.003 0.425,0.013C0.419,0.023 0.407,0.031 0.384,0.031C0.377,0.031 0.37,0.032 0.368,0.032C0.362,0.034 0.353,0.035 0.341,0.031L0.34,0.031C0.335,0.031 0.325,0.028 0.31,0.021C0.299,0.017 0.287,0.007 0.281,-0.013L0.275,-0.026C0.273,-0.023 0.271,-0.02 0.269,-0.016L0.261,-0.001C0.261,0 0.26,0.001 0.26,0.002C0.258,0.004 0.255,0.009 0.249,0.015C0.24,0.03 0.225,0.039 0.2,0.039C0.185,0.039 0.167,0.036 0.147,0.028C0.141,0.027 0.133,0.024 0.121,0.02C0.115,0.02 0.107,0.018 0.098,0.015C0.094,0.013 0.09,0.012 0.089,0.012C0.083,0.011 0.078,0.008 0.074,0.004C0.073,0.003 0.069,0.001 0.064,-0.002C0.063,-0.003 0.061,-0.005 0.059,-0.006L0.042,-0.024L0.043,-0.024C0.041,-0.025 0.036,-0.032 0.033,-0.045C0.029,-0.056 0.029,-0.064 0.03,-0.069C0.03,-0.07 0.03,-0.071 0.03,-0.071C0.029,-0.078 0.029,-0.085 0.031,-0.092C0.031,-0.105 0.032,-0.118 0.035,-0.132C0.034,-0.135 0.034,-0.137 0.034,-0.14C0.034,-0.143 0.035,-0.149 0.037,-0.157C0.037,-0.159 0.037,-0.161 0.037,-0.162C0.037,-0.163 0.037,-0.164 0.037,-0.165L0.042,-0.203C0.042,-0.211 0.042,-0.218 0.043,-0.223L0.043,-0.236C0.043,-0.238 0.043,-0.24 0.044,-0.243C0.044,-0.244 0.044,-0.245 0.044,-0.247C0.044,-0.248 0.044,-0.249 0.044,-0.25L0.049,-0.297C0.049,-0.303 0.049,-0.307 0.05,-0.311L0.05,-0.319C0.05,-0.322 0.051,-0.326 0.052,-0.329C0.052,-0.33 0.052,-0.333 0.052,-0.335C0.052,-0.338 0.052,-0.341 0.053,-0.343L0.062,-0.371C0.063,-0.373 0.064,-0.375 0.065,-0.377L0.072,-0.389L0.072,-0.388C0.075,-0.395 0.081,-0.402 0.093,-0.408C0.107,-0.416 0.126,-0.421 0.152,-0.421C0.153,-0.421 0.155,-0.421 0.156,-0.421C0.166,-0.419 0.176,-0.416 0.187,-0.41C0.192,-0.409 0.197,-0.407 0.203,-0.405C0.225,-0.395 0.239,-0.368 0.22,-0.322L0.217,-0.298L0.217,-0.299C0.217,-0.295 0.216,-0.292 0.214,-0.289C0.214,-0.288 0.213,-0.287 0.213,-0.286C0.213,-0.285 0.213,-0.284 0.213,-0.283C0.211,-0.273 0.209,-0.264 0.208,-0.259C0.208,-0.257 0.208,-0.256 0.208,-0.255C0.209,-0.252 0.208,-0.246 0.203,-0.235L0.2,-0.202C0.2,-0.201 0.199,-0.199 0.199,-0.197C0.196,-0.186 0.194,-0.173 0.194,-0.16C0.203,-0.182 0.209,-0.198 0.213,-0.206C0.216,-0.222 0.221,-0.241 0.228,-0.262C0.228,-0.267 0.228,-0.274 0.229,-0.283C0.229,-0.284 0.23,-0.284 0.23,-0.285L0.243,-0.338C0.243,-0.341 0.244,-0.344 0.246,-0.346C0.248,-0.35 0.251,-0.354 0.252,-0.356C0.252,-0.358 0.252,-0.359 0.253,-0.361C0.254,-0.365 0.258,-0.374 0.264,-0.387C0.266,-0.392 0.268,-0.399 0.272,-0.406C0.272,-0.407 0.273,-0.408 0.273,-0.409C0.28,-0.419 0.291,-0.429 0.308,-0.439C0.312,-0.441 0.316,-0.442 0.321,-0.442L0.323,-0.442ZM0.366,-0.277L0.367,-0.258C0.367,-0.256 0.369,-0.235 0.373,-0.195L0.373,-0.183C0.373,-0.167 0.376,-0.143 0.381,-0.111C0.381,-0.097 0.388,-0.073 0.402,-0.038C0.405,-0.036 0.408,-0.031 0.409,-0.024L0.408,-0.014C0.409,-0.011 0.408,-0.007 0.403,-0.003C0.403,0.002 0.397,0.004 0.384,0.004C0.371,0.004 0.363,0.005 0.36,0.006C0.357,0.007 0.351,0.007 0.344,0.004C0.341,0.005 0.333,0.003 0.32,-0.004C0.314,-0.005 0.309,-0.011 0.306,-0.022L0.298,-0.041C0.298,-0.053 0.295,-0.064 0.288,-0.073C0.288,-0.076 0.287,-0.082 0.284,-0.091C0.281,-0.1 0.278,-0.104 0.277,-0.105C0.27,-0.078 0.262,-0.058 0.252,-0.043C0.252,-0.04 0.25,-0.036 0.246,-0.031L0.236,-0.012C0.236,-0.011 0.233,-0.007 0.227,-0.001C0.223,0.008 0.214,0.012 0.2,0.012C0.187,0.012 0.172,0.009 0.154,0.002C0.149,0.001 0.14,-0.002 0.126,-0.007C0.122,-0.006 0.116,-0.008 0.108,-0.01C0.099,-0.014 0.094,-0.015 0.093,-0.015C0.091,-0.017 0.086,-0.02 0.079,-0.025L0.062,-0.043C0.061,-0.044 0.06,-0.047 0.058,-0.053C0.057,-0.058 0.056,-0.062 0.057,-0.065C0.058,-0.067 0.058,-0.07 0.057,-0.075C0.056,-0.08 0.057,-0.084 0.058,-0.089C0.058,-0.102 0.059,-0.117 0.062,-0.133C0.061,-0.135 0.061,-0.137 0.061,-0.14C0.061,-0.143 0.062,-0.148 0.065,-0.155C0.064,-0.158 0.064,-0.161 0.064,-0.162L0.069,-0.201C0.069,-0.21 0.069,-0.217 0.07,-0.221L0.07,-0.236C0.071,-0.239 0.071,-0.242 0.071,-0.247L0.076,-0.295C0.076,-0.302 0.076,-0.307 0.077,-0.309L0.077,-0.319C0.078,-0.32 0.079,-0.326 0.079,-0.335L0.088,-0.363L0.095,-0.375C0.096,-0.378 0.099,-0.381 0.106,-0.384C0.117,-0.391 0.132,-0.394 0.152,-0.394C0.16,-0.393 0.169,-0.389 0.178,-0.384C0.18,-0.385 0.185,-0.383 0.192,-0.38C0.205,-0.374 0.206,-0.357 0.194,-0.329C0.191,-0.311 0.19,-0.302 0.19,-0.301C0.187,-0.296 0.186,-0.291 0.186,-0.288C0.182,-0.267 0.18,-0.255 0.18,-0.254C0.183,-0.257 0.182,-0.253 0.177,-0.242L0.173,-0.205C0.168,-0.189 0.166,-0.171 0.167,-0.152L0.163,-0.139C0.164,-0.136 0.163,-0.125 0.162,-0.108C0.163,-0.106 0.164,-0.104 0.164,-0.101L0.165,-0.093C0.164,-0.091 0.165,-0.089 0.166,-0.088C0.167,-0.086 0.171,-0.085 0.178,-0.085C0.184,-0.086 0.189,-0.087 0.194,-0.09C0.203,-0.101 0.21,-0.113 0.213,-0.125C0.216,-0.138 0.218,-0.145 0.218,-0.147C0.229,-0.176 0.236,-0.192 0.239,-0.197C0.242,-0.215 0.248,-0.236 0.256,-0.259C0.255,-0.262 0.255,-0.269 0.256,-0.279L0.269,-0.332C0.275,-0.342 0.278,-0.348 0.278,-0.351C0.278,-0.353 0.282,-0.362 0.29,-0.378C0.29,-0.381 0.292,-0.386 0.296,-0.394C0.301,-0.401 0.309,-0.408 0.321,-0.415L0.324,-0.415C0.339,-0.416 0.351,-0.414 0.362,-0.409C0.363,-0.406 0.364,-0.402 0.364,-0.395C0.365,-0.388 0.367,-0.376 0.368,-0.359L0.368,-0.349L0.364,-0.327C0.369,-0.31 0.37,-0.294 0.366,-0.277ZM0.194,-0.231L0.193,-0.23L0.194,-0.231ZM0.195,-0.231C0.195,-0.232 0.196,-0.232 0.197,-0.233C0.198,-0.233 0.198,-0.234 0.199,-0.235C0.198,-0.233 0.196,-0.232 0.195,-0.231Z" style="fill:white;"/>
            </g>
            <g transform="matrix(32.3248,0,0,37,2849.55,-114.601)">
                <path d="M0.092,-0.391C0.099,-0.394 0.114,-0.391 0.139,-0.381C0.142,-0.378 0.146,-0.376 0.151,-0.373L0.167,-0.36C0.17,-0.357 0.171,-0.353 0.171,-0.347L0.171,-0.259C0.171,-0.246 0.17,-0.234 0.169,-0.223L0.169,-0.217C0.167,-0.19 0.169,-0.128 0.174,-0.032C0.176,-0.013 0.172,-0.002 0.161,0.002C0.15,0.002 0.142,0 0.139,-0.003C0.136,-0.004 0.134,-0.005 0.132,-0.005L0.125,-0.005L0.119,-0.003C0.117,-0.003 0.113,-0.005 0.108,-0.008C0.103,-0.01 0.099,-0.014 0.097,-0.017C0.096,-0.02 0.093,-0.022 0.089,-0.023C0.082,-0.026 0.078,-0.031 0.077,-0.038C0.068,-0.056 0.063,-0.067 0.063,-0.07C0.062,-0.073 0.061,-0.077 0.059,-0.081L0.054,-0.168C0.054,-0.178 0.055,-0.186 0.056,-0.191L0.056,-0.215C0.057,-0.222 0.057,-0.236 0.058,-0.255C0.059,-0.275 0.06,-0.291 0.061,-0.303C0.06,-0.32 0.059,-0.332 0.059,-0.338C0.059,-0.344 0.059,-0.348 0.06,-0.351C0.053,-0.358 0.053,-0.368 0.061,-0.381C0.07,-0.388 0.078,-0.391 0.086,-0.391L0.092,-0.391Z" style="fill:rgb(234,58,105);"/>
                <path d="M0.088,-0.418C0.092,-0.419 0.097,-0.419 0.102,-0.419C0.112,-0.419 0.128,-0.415 0.149,-0.406C0.153,-0.405 0.156,-0.403 0.158,-0.4C0.159,-0.399 0.161,-0.398 0.163,-0.397C0.165,-0.396 0.167,-0.395 0.168,-0.394L0.184,-0.381C0.185,-0.38 0.185,-0.38 0.186,-0.379C0.193,-0.372 0.198,-0.362 0.198,-0.347L0.198,-0.259C0.198,-0.245 0.197,-0.233 0.196,-0.221L0.196,-0.215C0.194,-0.188 0.196,-0.128 0.201,-0.034C0.204,0.001 0.191,0.02 0.17,0.027C0.167,0.028 0.164,0.029 0.161,0.029C0.147,0.029 0.136,0.026 0.129,0.022L0.128,0.023C0.125,0.024 0.122,0.024 0.119,0.024C0.115,0.024 0.106,0.022 0.095,0.016C0.087,0.012 0.081,0.007 0.077,0.001C0.062,-0.005 0.054,-0.015 0.051,-0.03C0.04,-0.05 0.036,-0.063 0.036,-0.067C0.036,-0.068 0.035,-0.068 0.035,-0.069C0.033,-0.072 0.032,-0.076 0.032,-0.079L0.027,-0.166C0.027,-0.167 0.027,-0.167 0.027,-0.168C0.027,-0.179 0.028,-0.187 0.029,-0.194L0.029,-0.215C0.029,-0.216 0.029,-0.217 0.029,-0.217C0.03,-0.225 0.03,-0.237 0.031,-0.256C0.032,-0.276 0.033,-0.291 0.034,-0.303C0.033,-0.32 0.032,-0.332 0.032,-0.338C0.032,-0.34 0.032,-0.342 0.032,-0.344C0.025,-0.357 0.025,-0.375 0.038,-0.395C0.04,-0.398 0.042,-0.4 0.045,-0.402C0.059,-0.413 0.073,-0.418 0.086,-0.418L0.088,-0.418ZM0.092,-0.391C0.099,-0.394 0.114,-0.391 0.139,-0.381C0.142,-0.378 0.146,-0.376 0.151,-0.373L0.167,-0.36C0.17,-0.357 0.171,-0.353 0.171,-0.347L0.171,-0.259C0.171,-0.246 0.17,-0.234 0.169,-0.223L0.169,-0.217C0.167,-0.19 0.169,-0.128 0.174,-0.032C0.176,-0.013 0.172,-0.002 0.161,0.002C0.15,0.002 0.142,0 0.139,-0.003C0.136,-0.004 0.134,-0.005 0.132,-0.005L0.125,-0.005L0.119,-0.003C0.117,-0.003 0.113,-0.005 0.108,-0.008C0.103,-0.01 0.099,-0.014 0.097,-0.017C0.096,-0.02 0.093,-0.022 0.089,-0.023C0.082,-0.026 0.078,-0.031 0.077,-0.038C0.068,-0.056 0.063,-0.067 0.063,-0.07C0.062,-0.073 0.061,-0.077 0.059,-0.081L0.054,-0.168C0.054,-0.178 0.055,-0.186 0.056,-0.191L0.056,-0.215C0.057,-0.222 0.057,-0.236 0.058,-0.255C0.059,-0.275 0.06,-0.291 0.061,-0.303C0.06,-0.32 0.059,-0.332 0.059,-0.338C0.059,-0.344 0.059,-0.348 0.06,-0.351C0.053,-0.358 0.053,-0.368 0.061,-0.381C0.07,-0.388 0.078,-0.391 0.086,-0.391L0.092,-0.391Z" style="fill:white;"/>
            </g>
            <g transform="matrix(32.3248,0,0,37,2849.27,-114.924)">
                <path d="M0.1,-0.627C0.145,-0.627 0.176,-0.618 0.194,-0.6C0.194,-0.589 0.186,-0.566 0.171,-0.531C0.168,-0.52 0.164,-0.511 0.158,-0.504L0.145,-0.491C0.142,-0.489 0.138,-0.488 0.135,-0.488C0.111,-0.482 0.092,-0.487 0.079,-0.502C0.076,-0.506 0.073,-0.509 0.07,-0.511C0.066,-0.513 0.063,-0.519 0.061,-0.529C0.055,-0.538 0.052,-0.544 0.052,-0.549C0.051,-0.59 0.066,-0.616 0.097,-0.627L0.1,-0.627Z" style="fill:rgb(234,58,105);"/>
                <path d="M0.036,-0.518C0.028,-0.531 0.025,-0.542 0.025,-0.549L0.025,-0.548C0.023,-0.604 0.046,-0.638 0.088,-0.653C0.091,-0.654 0.094,-0.654 0.097,-0.654L0.1,-0.654C0.154,-0.654 0.191,-0.641 0.213,-0.619C0.218,-0.614 0.221,-0.607 0.221,-0.6C0.221,-0.587 0.214,-0.561 0.197,-0.522C0.193,-0.507 0.186,-0.495 0.178,-0.486L0.164,-0.472C0.163,-0.47 0.161,-0.469 0.159,-0.468C0.152,-0.464 0.146,-0.462 0.139,-0.461C0.104,-0.453 0.078,-0.462 0.059,-0.484C0.058,-0.485 0.057,-0.486 0.057,-0.487C0.056,-0.487 0.057,-0.487 0.057,-0.487C0.049,-0.491 0.041,-0.5 0.036,-0.518ZM0.1,-0.627C0.145,-0.627 0.176,-0.618 0.194,-0.6C0.194,-0.589 0.186,-0.566 0.171,-0.531C0.168,-0.52 0.164,-0.511 0.158,-0.504L0.145,-0.491C0.142,-0.489 0.138,-0.488 0.135,-0.488C0.111,-0.482 0.092,-0.487 0.079,-0.502C0.076,-0.506 0.073,-0.509 0.07,-0.511C0.066,-0.513 0.063,-0.519 0.061,-0.529C0.055,-0.538 0.052,-0.544 0.052,-0.549C0.051,-0.59 0.066,-0.616 0.097,-0.627L0.1,-0.627Z" style="fill:white;"/>
            </g>
            <g transform="matrix(29.7039,0,0,34,2789.36,-89.6014)">
                <path d="M0.244,-0.5L0.237,-0.381C0.24,-0.383 0.254,-0.385 0.277,-0.386C0.3,-0.387 0.316,-0.386 0.323,-0.385L0.36,-0.368C0.369,-0.362 0.38,-0.352 0.393,-0.337C0.401,-0.32 0.391,-0.306 0.364,-0.297C0.338,-0.293 0.321,-0.291 0.314,-0.291L0.235,-0.287L0.235,-0.241C0.239,-0.159 0.241,-0.111 0.241,-0.098C0.244,-0.078 0.246,-0.066 0.246,-0.062L0.246,-0.04C0.246,-0.027 0.244,-0.019 0.241,-0.016C0.233,-0.006 0.228,-0.001 0.226,0C0.199,0.011 0.17,0.004 0.139,-0.02L0.123,-0.041C0.123,-0.044 0.121,-0.054 0.117,-0.071C0.118,-0.073 0.115,-0.084 0.109,-0.104C0.109,-0.108 0.11,-0.113 0.112,-0.119C0.113,-0.125 0.114,-0.132 0.114,-0.139C0.114,-0.146 0.112,-0.154 0.109,-0.162C0.109,-0.171 0.108,-0.178 0.107,-0.185L0.107,-0.195C0.108,-0.202 0.109,-0.21 0.11,-0.219C0.11,-0.227 0.111,-0.235 0.113,-0.244C0.114,-0.252 0.114,-0.26 0.113,-0.267L0.113,-0.27C0.104,-0.275 0.097,-0.277 0.093,-0.276C0.088,-0.275 0.084,-0.278 0.079,-0.282C0.074,-0.288 0.071,-0.292 0.07,-0.297C0.069,-0.302 0.076,-0.311 0.091,-0.325C0.092,-0.328 0.1,-0.332 0.115,-0.339L0.115,-0.359L0.12,-0.415C0.118,-0.433 0.118,-0.447 0.12,-0.456C0.122,-0.465 0.122,-0.473 0.121,-0.479L0.127,-0.501C0.094,-0.495 0.07,-0.494 0.055,-0.497C0.042,-0.503 0.036,-0.513 0.035,-0.526C0.034,-0.527 0.036,-0.536 0.04,-0.555C0.038,-0.564 0.046,-0.576 0.064,-0.59C0.079,-0.597 0.093,-0.601 0.106,-0.604C0.131,-0.613 0.154,-0.618 0.174,-0.621C0.213,-0.628 0.245,-0.633 0.269,-0.638L0.316,-0.655C0.327,-0.661 0.334,-0.664 0.339,-0.663C0.343,-0.662 0.349,-0.664 0.358,-0.667C0.359,-0.67 0.367,-0.673 0.381,-0.676C0.41,-0.681 0.426,-0.678 0.431,-0.667C0.437,-0.666 0.445,-0.661 0.455,-0.653C0.457,-0.652 0.465,-0.639 0.478,-0.614C0.48,-0.609 0.479,-0.603 0.475,-0.598C0.471,-0.592 0.465,-0.589 0.456,-0.588L0.429,-0.578C0.421,-0.577 0.41,-0.574 0.395,-0.567C0.368,-0.56 0.352,-0.556 0.349,-0.556C0.346,-0.556 0.342,-0.556 0.339,-0.555C0.329,-0.553 0.318,-0.55 0.307,-0.547C0.296,-0.544 0.286,-0.542 0.278,-0.542C0.259,-0.538 0.249,-0.533 0.247,-0.528C0.246,-0.527 0.246,-0.525 0.246,-0.522L0.244,-0.51L0.244,-0.5Z" style="fill:rgb(234,58,105);fill-rule:nonzero;"/>
                <path d="M0.342,-0.693C0.343,-0.694 0.344,-0.694 0.346,-0.695C0.351,-0.698 0.361,-0.702 0.376,-0.705C0.399,-0.709 0.417,-0.708 0.429,-0.705C0.438,-0.702 0.445,-0.697 0.45,-0.691C0.457,-0.688 0.464,-0.683 0.472,-0.677C0.475,-0.675 0.477,-0.673 0.48,-0.669C0.484,-0.664 0.492,-0.65 0.504,-0.628C0.505,-0.627 0.505,-0.625 0.506,-0.624C0.511,-0.61 0.51,-0.595 0.499,-0.581C0.491,-0.569 0.479,-0.562 0.463,-0.559L0.439,-0.55C0.437,-0.549 0.434,-0.549 0.431,-0.549C0.426,-0.548 0.418,-0.545 0.407,-0.54C0.406,-0.54 0.404,-0.539 0.403,-0.539C0.371,-0.53 0.353,-0.527 0.349,-0.527C0.348,-0.527 0.346,-0.526 0.345,-0.526C0.336,-0.524 0.326,-0.522 0.315,-0.519C0.302,-0.515 0.291,-0.513 0.282,-0.513C0.279,-0.512 0.276,-0.511 0.274,-0.51L0.273,-0.508L0.273,-0.498L0.268,-0.415C0.271,-0.415 0.273,-0.415 0.276,-0.415C0.302,-0.416 0.32,-0.415 0.328,-0.414C0.331,-0.413 0.333,-0.413 0.335,-0.412L0.372,-0.395C0.374,-0.394 0.375,-0.393 0.376,-0.393C0.387,-0.386 0.4,-0.374 0.415,-0.356C0.417,-0.354 0.419,-0.352 0.42,-0.349C0.427,-0.334 0.427,-0.319 0.421,-0.306C0.415,-0.292 0.4,-0.278 0.374,-0.269C0.372,-0.269 0.37,-0.268 0.368,-0.268C0.34,-0.264 0.322,-0.262 0.314,-0.262L0.315,-0.262L0.264,-0.259L0.264,-0.242C0.268,-0.164 0.27,-0.117 0.27,-0.101C0.274,-0.079 0.275,-0.066 0.275,-0.062L0.275,-0.04C0.275,-0.018 0.269,-0.004 0.264,0.003L0.264,0.002C0.25,0.02 0.239,0.027 0.235,0.028L0.237,0.027C0.2,0.042 0.162,0.035 0.121,0.003C0.119,0.002 0.117,0 0.116,-0.002L0.1,-0.023C0.096,-0.028 0.094,-0.033 0.094,-0.039C0.093,-0.04 0.091,-0.052 0.088,-0.064C0.088,-0.066 0.088,-0.069 0.088,-0.071C0.087,-0.074 0.084,-0.084 0.081,-0.096C0.08,-0.098 0.08,-0.101 0.08,-0.104C0.08,-0.11 0.081,-0.118 0.083,-0.127C0.084,-0.131 0.085,-0.135 0.085,-0.139C0.085,-0.143 0.084,-0.147 0.082,-0.151C0.08,-0.154 0.08,-0.158 0.08,-0.162C0.08,-0.168 0.079,-0.174 0.078,-0.179C0.078,-0.181 0.078,-0.183 0.078,-0.185L0.078,-0.195C0.078,-0.197 0.078,-0.199 0.078,-0.2C0.079,-0.206 0.08,-0.213 0.08,-0.22C0.08,-0.229 0.082,-0.238 0.083,-0.247C0.075,-0.249 0.066,-0.253 0.058,-0.262C0.047,-0.272 0.042,-0.283 0.041,-0.293C0.04,-0.299 0.04,-0.307 0.045,-0.316C0.049,-0.323 0.056,-0.332 0.069,-0.345C0.07,-0.346 0.072,-0.348 0.073,-0.349C0.076,-0.351 0.08,-0.354 0.086,-0.357L0.086,-0.362L0.09,-0.415C0.088,-0.435 0.089,-0.451 0.091,-0.462C0.092,-0.464 0.092,-0.465 0.092,-0.467C0.074,-0.465 0.059,-0.466 0.048,-0.468C0.046,-0.469 0.044,-0.469 0.042,-0.47C0.02,-0.481 0.008,-0.498 0.006,-0.522C0.006,-0.523 0.006,-0.523 0.006,-0.524C0.005,-0.527 0.006,-0.538 0.01,-0.557C0.011,-0.573 0.02,-0.593 0.046,-0.613C0.048,-0.615 0.05,-0.616 0.052,-0.617C0.068,-0.624 0.084,-0.629 0.098,-0.632C0.125,-0.641 0.148,-0.647 0.169,-0.65C0.207,-0.656 0.238,-0.662 0.261,-0.666L0.304,-0.682C0.32,-0.691 0.333,-0.693 0.341,-0.692L0.342,-0.693ZM0.244,-0.5L0.237,-0.381C0.24,-0.383 0.254,-0.385 0.277,-0.385C0.3,-0.386 0.316,-0.386 0.323,-0.385L0.36,-0.368C0.369,-0.362 0.38,-0.352 0.393,-0.337C0.401,-0.32 0.391,-0.306 0.364,-0.297C0.338,-0.293 0.321,-0.291 0.314,-0.291L0.235,-0.287L0.235,-0.241C0.239,-0.159 0.241,-0.111 0.241,-0.098C0.244,-0.078 0.246,-0.066 0.246,-0.062L0.246,-0.04C0.246,-0.027 0.244,-0.019 0.241,-0.016C0.233,-0.006 0.228,-0.001 0.226,0C0.199,0.011 0.17,0.004 0.139,-0.02L0.123,-0.041C0.123,-0.044 0.121,-0.054 0.117,-0.071C0.118,-0.073 0.115,-0.084 0.109,-0.104C0.109,-0.108 0.11,-0.113 0.111,-0.119C0.113,-0.125 0.114,-0.132 0.114,-0.139C0.114,-0.146 0.112,-0.154 0.109,-0.162C0.109,-0.171 0.108,-0.178 0.107,-0.185L0.107,-0.195C0.108,-0.202 0.109,-0.21 0.109,-0.218C0.11,-0.227 0.111,-0.235 0.112,-0.243C0.114,-0.252 0.114,-0.26 0.113,-0.267L0.113,-0.27C0.104,-0.275 0.097,-0.277 0.092,-0.276C0.088,-0.275 0.083,-0.277 0.078,-0.282C0.073,-0.287 0.071,-0.292 0.07,-0.297C0.069,-0.302 0.076,-0.311 0.091,-0.325C0.092,-0.328 0.1,-0.332 0.115,-0.339L0.115,-0.359L0.12,-0.415C0.118,-0.433 0.118,-0.447 0.12,-0.456C0.122,-0.465 0.122,-0.473 0.121,-0.479L0.127,-0.501C0.094,-0.495 0.07,-0.494 0.055,-0.497C0.042,-0.503 0.036,-0.513 0.035,-0.526C0.034,-0.527 0.036,-0.536 0.04,-0.555C0.038,-0.564 0.046,-0.576 0.064,-0.59C0.079,-0.597 0.093,-0.601 0.106,-0.604C0.131,-0.613 0.154,-0.618 0.174,-0.621C0.213,-0.628 0.245,-0.633 0.269,-0.638L0.316,-0.655C0.327,-0.661 0.334,-0.664 0.338,-0.663C0.343,-0.662 0.349,-0.664 0.358,-0.667C0.359,-0.67 0.367,-0.673 0.381,-0.676C0.41,-0.681 0.426,-0.678 0.431,-0.667C0.437,-0.666 0.445,-0.661 0.455,-0.653C0.457,-0.652 0.465,-0.639 0.478,-0.614C0.48,-0.609 0.479,-0.603 0.475,-0.597C0.471,-0.592 0.465,-0.589 0.456,-0.588L0.429,-0.578C0.421,-0.577 0.41,-0.574 0.395,-0.567C0.368,-0.56 0.352,-0.556 0.349,-0.556C0.346,-0.556 0.342,-0.556 0.339,-0.555C0.329,-0.553 0.318,-0.55 0.307,-0.547C0.296,-0.544 0.286,-0.542 0.278,-0.542C0.259,-0.538 0.249,-0.533 0.247,-0.528C0.246,-0.527 0.246,-0.525 0.246,-0.522L0.244,-0.51L0.244,-0.5Z" style="fill:white;"/>
            </g>
            <g transform="matrix(29.7039,0,0,34,2805.49,-89.6014)">
                <path d="M0.052,-0.295C0.052,-0.301 0.051,-0.308 0.05,-0.316L0.05,-0.323C0.051,-0.328 0.05,-0.333 0.049,-0.338C0.049,-0.345 0.05,-0.351 0.051,-0.356C0.051,-0.369 0.053,-0.378 0.056,-0.382C0.056,-0.385 0.061,-0.393 0.07,-0.405C0.073,-0.408 0.078,-0.412 0.085,-0.418C0.096,-0.421 0.103,-0.423 0.107,-0.424C0.11,-0.427 0.119,-0.426 0.134,-0.421C0.141,-0.42 0.151,-0.418 0.165,-0.414C0.17,-0.413 0.176,-0.407 0.183,-0.398C0.182,-0.395 0.18,-0.386 0.177,-0.369C0.173,-0.352 0.172,-0.338 0.173,-0.327C0.177,-0.33 0.184,-0.337 0.194,-0.348C0.204,-0.359 0.209,-0.364 0.21,-0.365C0.227,-0.373 0.244,-0.379 0.261,-0.382C0.285,-0.384 0.301,-0.382 0.308,-0.377C0.314,-0.375 0.319,-0.372 0.322,-0.368C0.328,-0.363 0.333,-0.354 0.337,-0.341C0.341,-0.328 0.341,-0.319 0.336,-0.316C0.332,-0.313 0.319,-0.31 0.296,-0.308C0.295,-0.308 0.29,-0.305 0.282,-0.3L0.23,-0.259C0.219,-0.254 0.212,-0.249 0.208,-0.245L0.189,-0.21C0.188,-0.209 0.188,-0.2 0.187,-0.184C0.186,-0.168 0.186,-0.157 0.187,-0.15C0.188,-0.142 0.188,-0.12 0.187,-0.082L0.187,-0.039C0.187,-0.016 0.187,-0.002 0.186,0.001C0.185,0.005 0.183,0.012 0.178,0.021C0.176,0.024 0.17,0.026 0.159,0.026C0.133,0.045 0.116,0.044 0.109,0.023L0.096,0.015C0.091,0.012 0.087,0.009 0.086,0.005C0.081,-0.002 0.078,-0.007 0.078,-0.008L0.074,-0.022L0.068,-0.034C0.066,-0.035 0.064,-0.048 0.063,-0.073C0.062,-0.098 0.061,-0.113 0.061,-0.118C0.061,-0.124 0.06,-0.13 0.059,-0.137C0.064,-0.142 0.066,-0.15 0.066,-0.161C0.065,-0.172 0.064,-0.181 0.063,-0.188C0.062,-0.194 0.062,-0.198 0.063,-0.2C0.064,-0.201 0.064,-0.21 0.062,-0.227C0.06,-0.23 0.06,-0.235 0.061,-0.242L0.052,-0.295Z" style="fill:rgb(234,58,105);fill-rule:nonzero;"/>
                <path d="M0.097,-0.452C0.1,-0.453 0.104,-0.454 0.109,-0.455C0.115,-0.455 0.126,-0.454 0.14,-0.45C0.148,-0.449 0.159,-0.446 0.173,-0.442C0.181,-0.44 0.193,-0.432 0.206,-0.416C0.21,-0.411 0.212,-0.404 0.212,-0.398C0.227,-0.404 0.241,-0.408 0.255,-0.411C0.256,-0.411 0.257,-0.411 0.259,-0.411C0.288,-0.414 0.308,-0.41 0.32,-0.404C0.33,-0.4 0.337,-0.395 0.343,-0.388C0.352,-0.38 0.359,-0.368 0.365,-0.349C0.374,-0.319 0.365,-0.301 0.354,-0.293L0.353,-0.292C0.35,-0.29 0.345,-0.287 0.338,-0.285C0.331,-0.283 0.32,-0.281 0.304,-0.279C0.303,-0.278 0.301,-0.277 0.299,-0.276L0.248,-0.236C0.247,-0.235 0.245,-0.234 0.243,-0.233C0.238,-0.23 0.234,-0.228 0.231,-0.226L0.217,-0.201C0.217,-0.197 0.217,-0.19 0.216,-0.183C0.216,-0.169 0.216,-0.158 0.216,-0.152C0.217,-0.145 0.217,-0.121 0.216,-0.082L0.216,-0.039C0.216,-0.013 0.216,0.003 0.215,0.007C0.214,0.012 0.211,0.021 0.204,0.034C0.204,0.035 0.204,0.035 0.203,0.036C0.199,0.043 0.189,0.052 0.169,0.055C0.146,0.07 0.126,0.071 0.113,0.067C0.102,0.063 0.093,0.056 0.086,0.043L0.081,0.041C0.071,0.035 0.064,0.027 0.06,0.019C0.053,0.009 0.05,0.001 0.049,-0.004L0.05,0L0.046,-0.011L0.043,-0.018L0.042,-0.019C0.041,-0.021 0.039,-0.025 0.038,-0.03C0.036,-0.037 0.035,-0.05 0.034,-0.071C0.032,-0.097 0.032,-0.113 0.032,-0.118C0.032,-0.122 0.031,-0.127 0.03,-0.131C0.028,-0.14 0.031,-0.148 0.036,-0.155C0.036,-0.156 0.036,-0.159 0.036,-0.16C0.036,-0.169 0.035,-0.176 0.034,-0.181C0.032,-0.192 0.033,-0.2 0.034,-0.206C0.034,-0.208 0.034,-0.214 0.033,-0.22C0.031,-0.225 0.03,-0.233 0.031,-0.241L0.023,-0.29C0.023,-0.292 0.023,-0.293 0.023,-0.295C0.023,-0.3 0.022,-0.305 0.021,-0.311C0.021,-0.313 0.021,-0.314 0.021,-0.316L0.021,-0.323C0.021,-0.324 0.021,-0.326 0.021,-0.327C0.021,-0.328 0.021,-0.33 0.02,-0.331C0.02,-0.333 0.02,-0.336 0.02,-0.338C0.02,-0.346 0.02,-0.353 0.022,-0.359C0.022,-0.374 0.025,-0.385 0.028,-0.392C0.029,-0.394 0.03,-0.396 0.031,-0.399C0.033,-0.404 0.038,-0.412 0.047,-0.423C0.048,-0.424 0.048,-0.425 0.049,-0.426C0.052,-0.429 0.058,-0.434 0.066,-0.441C0.069,-0.443 0.073,-0.445 0.076,-0.446C0.085,-0.449 0.092,-0.451 0.097,-0.452ZM0.052,-0.295C0.052,-0.301 0.051,-0.308 0.05,-0.316L0.05,-0.323C0.051,-0.328 0.05,-0.333 0.049,-0.338C0.049,-0.345 0.05,-0.351 0.051,-0.356C0.051,-0.369 0.053,-0.378 0.056,-0.382C0.056,-0.385 0.061,-0.393 0.07,-0.405C0.073,-0.408 0.078,-0.412 0.085,-0.418C0.096,-0.421 0.103,-0.423 0.107,-0.424C0.11,-0.427 0.119,-0.426 0.134,-0.421C0.141,-0.42 0.151,-0.418 0.165,-0.414C0.17,-0.413 0.176,-0.407 0.183,-0.398C0.182,-0.395 0.18,-0.385 0.177,-0.368C0.173,-0.351 0.172,-0.338 0.173,-0.327C0.177,-0.33 0.184,-0.337 0.194,-0.348C0.204,-0.359 0.209,-0.364 0.21,-0.365C0.227,-0.373 0.244,-0.379 0.261,-0.382C0.285,-0.384 0.301,-0.382 0.308,-0.377C0.314,-0.375 0.319,-0.372 0.322,-0.368C0.328,-0.363 0.333,-0.353 0.337,-0.34C0.341,-0.327 0.341,-0.319 0.336,-0.316C0.332,-0.313 0.319,-0.31 0.296,-0.308C0.295,-0.308 0.29,-0.305 0.282,-0.3L0.23,-0.259C0.219,-0.254 0.212,-0.249 0.208,-0.245L0.189,-0.21C0.188,-0.209 0.188,-0.2 0.187,-0.184C0.186,-0.168 0.186,-0.156 0.187,-0.149C0.188,-0.142 0.188,-0.12 0.187,-0.082L0.187,-0.039C0.187,-0.016 0.187,-0.002 0.186,0.001C0.185,0.005 0.183,0.012 0.178,0.021C0.176,0.024 0.17,0.026 0.159,0.026C0.133,0.045 0.116,0.044 0.109,0.023L0.096,0.015C0.091,0.012 0.087,0.009 0.086,0.005C0.081,-0.002 0.078,-0.007 0.078,-0.008L0.074,-0.022L0.068,-0.034C0.066,-0.035 0.064,-0.048 0.063,-0.072C0.062,-0.097 0.061,-0.113 0.061,-0.118C0.061,-0.124 0.06,-0.13 0.059,-0.137C0.064,-0.142 0.066,-0.15 0.066,-0.161C0.065,-0.172 0.064,-0.181 0.063,-0.188C0.062,-0.194 0.062,-0.198 0.063,-0.199C0.064,-0.201 0.064,-0.21 0.062,-0.227C0.06,-0.23 0.06,-0.235 0.061,-0.242L0.052,-0.295Z" style="fill:white;"/>
            </g>
            <g transform="matrix(29.7039,0,0,34,2818.53,-89.6014)">
                <path d="M0.366,-0.277L0.367,-0.258C0.367,-0.256 0.369,-0.235 0.373,-0.195L0.373,-0.183C0.373,-0.167 0.376,-0.143 0.381,-0.111C0.381,-0.097 0.388,-0.073 0.402,-0.038C0.405,-0.036 0.408,-0.031 0.409,-0.024L0.408,-0.014C0.409,-0.011 0.408,-0.007 0.403,-0.003C0.403,0.002 0.397,0.004 0.384,0.004C0.371,0.004 0.363,0.005 0.36,0.006C0.357,0.007 0.351,0.007 0.344,0.004C0.341,0.005 0.333,0.003 0.32,-0.004C0.314,-0.005 0.309,-0.011 0.306,-0.022L0.298,-0.041C0.298,-0.053 0.295,-0.064 0.288,-0.073C0.288,-0.076 0.286,-0.082 0.283,-0.091C0.281,-0.1 0.278,-0.104 0.277,-0.105C0.27,-0.078 0.262,-0.058 0.252,-0.043C0.252,-0.04 0.25,-0.036 0.246,-0.031L0.236,-0.012C0.236,-0.011 0.233,-0.007 0.227,-0.001C0.223,0.008 0.214,0.012 0.2,0.012C0.187,0.012 0.172,0.009 0.154,0.002C0.149,0.001 0.14,-0.002 0.126,-0.007C0.122,-0.006 0.116,-0.008 0.108,-0.011C0.099,-0.014 0.094,-0.015 0.093,-0.015C0.091,-0.017 0.086,-0.02 0.079,-0.025L0.062,-0.043C0.061,-0.044 0.06,-0.047 0.059,-0.053C0.057,-0.058 0.056,-0.062 0.057,-0.065C0.058,-0.067 0.058,-0.07 0.057,-0.075C0.056,-0.08 0.057,-0.084 0.058,-0.089C0.058,-0.102 0.059,-0.117 0.062,-0.133C0.061,-0.135 0.061,-0.137 0.061,-0.14C0.061,-0.143 0.062,-0.148 0.065,-0.155C0.064,-0.158 0.064,-0.161 0.064,-0.162L0.069,-0.201C0.069,-0.21 0.069,-0.217 0.07,-0.221L0.07,-0.236C0.071,-0.239 0.071,-0.242 0.071,-0.247L0.076,-0.295C0.076,-0.302 0.076,-0.307 0.077,-0.309L0.077,-0.319C0.078,-0.32 0.079,-0.326 0.079,-0.335L0.088,-0.363L0.095,-0.375C0.096,-0.378 0.099,-0.381 0.106,-0.384C0.117,-0.391 0.132,-0.394 0.152,-0.394C0.16,-0.393 0.169,-0.389 0.178,-0.384C0.18,-0.385 0.185,-0.383 0.192,-0.38C0.205,-0.374 0.206,-0.357 0.194,-0.329C0.191,-0.311 0.19,-0.302 0.19,-0.301C0.187,-0.296 0.186,-0.291 0.186,-0.288C0.182,-0.267 0.18,-0.255 0.18,-0.254C0.183,-0.257 0.182,-0.253 0.177,-0.242L0.173,-0.205C0.168,-0.189 0.166,-0.171 0.167,-0.152L0.163,-0.139C0.164,-0.136 0.163,-0.125 0.162,-0.108C0.163,-0.106 0.164,-0.104 0.164,-0.101L0.165,-0.093C0.164,-0.091 0.165,-0.089 0.166,-0.087C0.167,-0.086 0.171,-0.085 0.178,-0.086C0.184,-0.086 0.189,-0.087 0.194,-0.09C0.203,-0.101 0.21,-0.113 0.213,-0.126C0.216,-0.138 0.218,-0.145 0.218,-0.147C0.229,-0.176 0.236,-0.192 0.239,-0.197C0.242,-0.215 0.248,-0.236 0.256,-0.259C0.255,-0.262 0.255,-0.269 0.256,-0.279L0.269,-0.332C0.275,-0.342 0.278,-0.348 0.278,-0.35C0.278,-0.353 0.282,-0.362 0.29,-0.378C0.29,-0.381 0.292,-0.386 0.296,-0.394C0.301,-0.401 0.309,-0.408 0.321,-0.415L0.324,-0.415C0.339,-0.416 0.351,-0.414 0.362,-0.409C0.363,-0.406 0.364,-0.402 0.364,-0.395C0.365,-0.388 0.367,-0.376 0.368,-0.359L0.368,-0.349L0.364,-0.327C0.369,-0.31 0.37,-0.294 0.366,-0.277Z" style="fill:rgb(234,58,105);fill-rule:nonzero;"/>
                <path d="M0.323,-0.444C0.343,-0.446 0.36,-0.443 0.375,-0.435C0.381,-0.432 0.385,-0.428 0.388,-0.422C0.391,-0.417 0.393,-0.409 0.393,-0.398C0.395,-0.39 0.396,-0.378 0.397,-0.361L0.397,-0.349C0.397,-0.347 0.397,-0.345 0.397,-0.344L0.394,-0.328C0.399,-0.31 0.399,-0.293 0.396,-0.275L0.396,-0.258C0.396,-0.258 0.396,-0.259 0.396,-0.259C0.396,-0.259 0.399,-0.233 0.402,-0.198L0.402,-0.183C0.402,-0.168 0.405,-0.146 0.41,-0.116C0.41,-0.114 0.41,-0.113 0.41,-0.111C0.41,-0.1 0.416,-0.081 0.427,-0.054C0.432,-0.049 0.436,-0.04 0.438,-0.029C0.438,-0.027 0.439,-0.024 0.438,-0.021L0.438,-0.016C0.439,-0.006 0.437,0.004 0.427,0.014C0.421,0.025 0.408,0.033 0.384,0.033C0.377,0.033 0.37,0.034 0.369,0.034C0.362,0.036 0.353,0.037 0.34,0.034L0.34,0.034C0.335,0.033 0.324,0.031 0.309,0.023C0.297,0.019 0.285,0.009 0.278,-0.012L0.275,-0.021C0.274,-0.019 0.272,-0.017 0.271,-0.015L0.263,0C0.263,0.001 0.262,0.002 0.262,0.003C0.26,0.005 0.257,0.01 0.251,0.017C0.242,0.031 0.226,0.041 0.2,0.041C0.185,0.041 0.167,0.038 0.146,0.03C0.14,0.029 0.132,0.027 0.121,0.022C0.114,0.022 0.107,0.02 0.098,0.017C0.094,0.016 0.089,0.014 0.088,0.014C0.082,0.013 0.077,0.01 0.073,0.006C0.073,0.006 0.068,0.003 0.063,0C0.061,-0.001 0.059,-0.003 0.058,-0.005L0.041,-0.023L0.041,-0.022C0.04,-0.024 0.034,-0.03 0.03,-0.044C0.027,-0.055 0.027,-0.064 0.028,-0.069L0.028,-0.071C0.027,-0.078 0.027,-0.085 0.029,-0.093C0.029,-0.105 0.03,-0.118 0.032,-0.132C0.032,-0.135 0.032,-0.137 0.032,-0.14C0.032,-0.143 0.032,-0.149 0.035,-0.158C0.035,-0.159 0.035,-0.161 0.035,-0.162C0.035,-0.163 0.035,-0.164 0.035,-0.166L0.04,-0.203C0.04,-0.212 0.04,-0.218 0.041,-0.223L0.041,-0.236C0.041,-0.238 0.041,-0.241 0.041,-0.243C0.042,-0.244 0.042,-0.245 0.042,-0.247C0.042,-0.248 0.042,-0.249 0.042,-0.25L0.047,-0.297C0.047,-0.303 0.047,-0.307 0.048,-0.311L0.048,-0.319C0.048,-0.322 0.048,-0.326 0.049,-0.329C0.049,-0.331 0.05,-0.333 0.05,-0.335C0.05,-0.338 0.05,-0.341 0.051,-0.344L0.06,-0.372C0.061,-0.374 0.062,-0.376 0.063,-0.378L0.07,-0.39L0.07,-0.39C0.073,-0.396 0.08,-0.404 0.092,-0.41C0.106,-0.418 0.126,-0.423 0.152,-0.423C0.154,-0.423 0.155,-0.423 0.157,-0.423C0.166,-0.421 0.177,-0.418 0.188,-0.412C0.193,-0.411 0.198,-0.41 0.204,-0.407C0.227,-0.396 0.242,-0.369 0.223,-0.321L0.219,-0.298L0.219,-0.298C0.219,-0.295 0.218,-0.291 0.216,-0.288C0.216,-0.287 0.216,-0.286 0.215,-0.286C0.215,-0.285 0.215,-0.284 0.215,-0.283C0.213,-0.273 0.212,-0.264 0.211,-0.259C0.211,-0.256 0.211,-0.253 0.21,-0.249C0.21,-0.246 0.209,-0.242 0.206,-0.235L0.202,-0.202C0.202,-0.2 0.202,-0.198 0.201,-0.197C0.199,-0.189 0.198,-0.182 0.197,-0.174C0.203,-0.189 0.208,-0.2 0.211,-0.206C0.214,-0.223 0.219,-0.241 0.226,-0.262C0.226,-0.268 0.226,-0.275 0.227,-0.283C0.227,-0.284 0.227,-0.285 0.227,-0.286L0.24,-0.339C0.241,-0.342 0.242,-0.345 0.244,-0.347C0.247,-0.352 0.25,-0.358 0.25,-0.358C0.25,-0.358 0.249,-0.354 0.249,-0.352C0.249,-0.357 0.253,-0.369 0.262,-0.388C0.264,-0.393 0.266,-0.4 0.27,-0.407C0.27,-0.408 0.271,-0.409 0.271,-0.41C0.278,-0.42 0.289,-0.431 0.307,-0.441C0.311,-0.443 0.316,-0.444 0.321,-0.444L0.323,-0.444ZM0.366,-0.277L0.367,-0.258C0.367,-0.256 0.369,-0.235 0.373,-0.195L0.373,-0.183C0.373,-0.167 0.376,-0.143 0.381,-0.111C0.381,-0.097 0.388,-0.073 0.402,-0.038C0.405,-0.036 0.408,-0.031 0.409,-0.024L0.408,-0.014C0.409,-0.011 0.408,-0.007 0.403,-0.003C0.403,0.002 0.397,0.004 0.384,0.004C0.371,0.004 0.363,0.005 0.36,0.006C0.357,0.007 0.351,0.007 0.344,0.004C0.341,0.005 0.333,0.003 0.32,-0.004C0.314,-0.005 0.309,-0.011 0.306,-0.022L0.298,-0.041C0.298,-0.053 0.295,-0.064 0.288,-0.073C0.288,-0.076 0.286,-0.082 0.284,-0.091C0.28,-0.1 0.278,-0.104 0.277,-0.105C0.27,-0.078 0.262,-0.058 0.252,-0.043C0.252,-0.04 0.25,-0.036 0.246,-0.031L0.236,-0.012C0.236,-0.011 0.233,-0.007 0.227,-0.001C0.223,0.008 0.214,0.012 0.2,0.012C0.187,0.012 0.172,0.009 0.154,0.002C0.149,0.001 0.14,-0.002 0.126,-0.007C0.122,-0.006 0.116,-0.007 0.108,-0.01C0.099,-0.013 0.094,-0.015 0.093,-0.015C0.091,-0.017 0.086,-0.02 0.079,-0.025L0.062,-0.043C0.061,-0.044 0.06,-0.047 0.058,-0.052C0.057,-0.058 0.056,-0.062 0.057,-0.064C0.058,-0.067 0.058,-0.07 0.057,-0.075C0.056,-0.08 0.057,-0.084 0.058,-0.089C0.058,-0.102 0.059,-0.117 0.062,-0.133C0.061,-0.135 0.061,-0.137 0.061,-0.14C0.061,-0.143 0.062,-0.148 0.065,-0.155C0.064,-0.158 0.064,-0.161 0.064,-0.162L0.069,-0.201C0.069,-0.21 0.069,-0.217 0.07,-0.221L0.07,-0.236C0.071,-0.239 0.071,-0.242 0.071,-0.247L0.076,-0.295C0.076,-0.302 0.076,-0.307 0.077,-0.309L0.077,-0.319C0.078,-0.32 0.079,-0.326 0.079,-0.335L0.088,-0.363L0.095,-0.375C0.096,-0.378 0.099,-0.381 0.106,-0.384C0.117,-0.391 0.132,-0.394 0.152,-0.394C0.16,-0.393 0.169,-0.389 0.178,-0.384C0.18,-0.385 0.185,-0.383 0.192,-0.38C0.205,-0.374 0.206,-0.357 0.194,-0.329C0.191,-0.311 0.19,-0.302 0.19,-0.301C0.187,-0.296 0.186,-0.291 0.186,-0.288C0.182,-0.267 0.18,-0.255 0.18,-0.254C0.183,-0.257 0.182,-0.253 0.177,-0.242L0.173,-0.205C0.168,-0.189 0.166,-0.171 0.167,-0.152L0.163,-0.139C0.164,-0.136 0.163,-0.125 0.162,-0.108C0.163,-0.106 0.164,-0.104 0.164,-0.101L0.165,-0.093C0.164,-0.091 0.165,-0.089 0.166,-0.087C0.167,-0.086 0.171,-0.085 0.177,-0.085C0.184,-0.086 0.189,-0.087 0.194,-0.09C0.203,-0.101 0.21,-0.113 0.213,-0.125C0.216,-0.138 0.218,-0.145 0.218,-0.147C0.229,-0.176 0.236,-0.192 0.239,-0.197C0.242,-0.215 0.248,-0.236 0.256,-0.259C0.255,-0.262 0.255,-0.269 0.256,-0.279L0.269,-0.332C0.275,-0.342 0.278,-0.348 0.278,-0.35C0.278,-0.353 0.282,-0.362 0.29,-0.378C0.29,-0.381 0.292,-0.386 0.296,-0.394C0.301,-0.401 0.309,-0.408 0.321,-0.415L0.324,-0.415C0.339,-0.416 0.351,-0.414 0.362,-0.409C0.363,-0.406 0.364,-0.402 0.364,-0.395C0.365,-0.388 0.367,-0.376 0.368,-0.359L0.368,-0.349L0.364,-0.327C0.369,-0.31 0.37,-0.294 0.366,-0.277ZM0.199,-0.232C0.198,-0.23 0.196,-0.229 0.194,-0.228C0.195,-0.229 0.196,-0.229 0.197,-0.23L0.201,-0.233L0.199,-0.232Z" style="fill:white;"/>
            </g>
            <g transform="matrix(29.7039,0,0,34,2855.75,-89.6014)">
                <path d="M0.092,-0.391C0.099,-0.394 0.114,-0.391 0.139,-0.381C0.142,-0.378 0.146,-0.376 0.151,-0.373L0.167,-0.36C0.17,-0.357 0.171,-0.353 0.171,-0.347L0.171,-0.259C0.171,-0.246 0.17,-0.234 0.169,-0.223L0.169,-0.217C0.167,-0.19 0.169,-0.128 0.174,-0.032C0.176,-0.013 0.172,-0.002 0.161,0.002C0.15,0.002 0.142,0 0.139,-0.003C0.136,-0.004 0.134,-0.005 0.132,-0.005L0.125,-0.005L0.119,-0.003C0.117,-0.003 0.113,-0.004 0.108,-0.007C0.103,-0.01 0.099,-0.014 0.097,-0.017C0.096,-0.02 0.093,-0.022 0.089,-0.023C0.082,-0.026 0.078,-0.031 0.077,-0.038C0.068,-0.056 0.063,-0.067 0.063,-0.07C0.062,-0.073 0.061,-0.077 0.059,-0.081L0.054,-0.168C0.054,-0.178 0.055,-0.186 0.056,-0.191L0.056,-0.215C0.057,-0.222 0.057,-0.236 0.058,-0.255C0.059,-0.275 0.06,-0.291 0.061,-0.303C0.06,-0.32 0.059,-0.332 0.059,-0.338C0.059,-0.344 0.059,-0.348 0.06,-0.351C0.053,-0.358 0.053,-0.368 0.061,-0.381C0.07,-0.388 0.078,-0.391 0.086,-0.391L0.092,-0.391Z" style="fill:rgb(234,58,105);"/>
                <path d="M0.088,-0.42C0.092,-0.421 0.096,-0.422 0.102,-0.422C0.113,-0.421 0.129,-0.417 0.15,-0.408C0.154,-0.407 0.157,-0.405 0.16,-0.402C0.161,-0.401 0.162,-0.4 0.164,-0.399C0.166,-0.398 0.168,-0.397 0.17,-0.396L0.186,-0.383C0.186,-0.382 0.187,-0.382 0.188,-0.381C0.195,-0.374 0.2,-0.363 0.2,-0.347L0.2,-0.259C0.2,-0.245 0.2,-0.232 0.198,-0.221L0.198,-0.215C0.196,-0.188 0.198,-0.128 0.203,-0.034C0.207,0.002 0.192,0.022 0.171,0.03C0.168,0.031 0.165,0.031 0.161,0.031C0.147,0.031 0.136,0.029 0.128,0.025L0.128,0.025C0.125,0.026 0.122,0.026 0.119,0.026C0.115,0.026 0.106,0.025 0.094,0.018C0.086,0.014 0.08,0.009 0.076,0.003C0.061,-0.003 0.052,-0.014 0.049,-0.029C0.039,-0.049 0.034,-0.062 0.033,-0.066C0.033,-0.067 0.033,-0.067 0.033,-0.068C0.031,-0.071 0.03,-0.075 0.03,-0.079L0.025,-0.166C0.025,-0.167 0.025,-0.167 0.025,-0.168C0.025,-0.179 0.025,-0.187 0.027,-0.194L0.027,-0.215C0.027,-0.216 0.027,-0.217 0.027,-0.218C0.027,-0.225 0.028,-0.238 0.029,-0.256C0.029,-0.276 0.03,-0.291 0.031,-0.303C0.03,-0.32 0.03,-0.332 0.03,-0.338C0.03,-0.34 0.03,-0.341 0.03,-0.343C0.022,-0.357 0.023,-0.375 0.036,-0.397C0.038,-0.4 0.04,-0.402 0.043,-0.404C0.058,-0.416 0.072,-0.42 0.086,-0.42L0.088,-0.42ZM0.092,-0.391C0.099,-0.394 0.114,-0.391 0.139,-0.381C0.142,-0.378 0.146,-0.376 0.151,-0.373L0.167,-0.36C0.17,-0.357 0.171,-0.353 0.171,-0.347L0.171,-0.259C0.171,-0.246 0.17,-0.234 0.169,-0.223L0.169,-0.217C0.167,-0.19 0.169,-0.128 0.174,-0.032C0.176,-0.013 0.172,-0.002 0.161,0.002C0.15,0.002 0.142,0 0.139,-0.003C0.136,-0.004 0.134,-0.005 0.132,-0.005L0.125,-0.005L0.119,-0.003C0.117,-0.003 0.113,-0.004 0.108,-0.007C0.103,-0.01 0.099,-0.014 0.097,-0.017C0.096,-0.02 0.093,-0.022 0.089,-0.023C0.082,-0.026 0.078,-0.031 0.077,-0.038C0.068,-0.056 0.063,-0.067 0.063,-0.07C0.062,-0.073 0.061,-0.077 0.059,-0.081L0.054,-0.168C0.054,-0.178 0.055,-0.186 0.056,-0.191L0.056,-0.215C0.057,-0.222 0.057,-0.236 0.058,-0.255C0.059,-0.275 0.06,-0.291 0.061,-0.303C0.06,-0.32 0.059,-0.332 0.059,-0.338C0.059,-0.344 0.059,-0.348 0.06,-0.351C0.053,-0.358 0.053,-0.368 0.061,-0.381C0.07,-0.388 0.078,-0.391 0.086,-0.391L0.092,-0.391Z" style="fill:white;"/>
            </g>
            <g transform="matrix(29.7039,0,0,34,2855.49,-88.7508)">
                <path d="M0.1,-0.627C0.145,-0.627 0.176,-0.618 0.194,-0.6C0.194,-0.589 0.186,-0.566 0.171,-0.531C0.168,-0.52 0.164,-0.511 0.158,-0.504L0.145,-0.491C0.142,-0.489 0.138,-0.488 0.135,-0.488C0.111,-0.482 0.092,-0.487 0.079,-0.502C0.076,-0.506 0.073,-0.509 0.069,-0.511C0.066,-0.513 0.063,-0.519 0.061,-0.529C0.055,-0.538 0.052,-0.544 0.052,-0.549C0.051,-0.59 0.066,-0.616 0.097,-0.627L0.1,-0.627Z" style="fill:rgb(234,58,105);"/>
                <path d="M0.034,-0.517C0.025,-0.531 0.023,-0.542 0.023,-0.549L0.023,-0.548C0.021,-0.605 0.044,-0.64 0.088,-0.655C0.091,-0.656 0.094,-0.656 0.097,-0.656L0.1,-0.656C0.155,-0.656 0.193,-0.643 0.215,-0.621C0.22,-0.615 0.223,-0.608 0.223,-0.6C0.223,-0.587 0.216,-0.561 0.199,-0.521C0.195,-0.506 0.188,-0.494 0.18,-0.484L0.166,-0.47C0.164,-0.469 0.162,-0.467 0.16,-0.466C0.153,-0.462 0.146,-0.459 0.139,-0.459C0.104,-0.451 0.077,-0.46 0.057,-0.483C0.056,-0.484 0.055,-0.485 0.055,-0.486C0.055,-0.485 0.055,-0.485 0.055,-0.485C0.048,-0.489 0.039,-0.499 0.034,-0.517ZM0.1,-0.627C0.145,-0.627 0.176,-0.618 0.194,-0.6C0.194,-0.589 0.186,-0.566 0.171,-0.531C0.168,-0.52 0.164,-0.511 0.158,-0.504L0.145,-0.491C0.142,-0.489 0.138,-0.488 0.135,-0.488C0.111,-0.482 0.092,-0.487 0.079,-0.502C0.076,-0.506 0.073,-0.509 0.069,-0.511C0.066,-0.513 0.063,-0.519 0.061,-0.529C0.055,-0.538 0.052,-0.544 0.052,-0.549C0.051,-0.59 0.066,-0.616 0.097,-0.627L0.1,-0.627Z" style="fill:white;"/>
            </g>
        </g>
        <g transform="matrix(1,0,0,1,-4.81954,-22.4718)">
            <circle cx="2825.06" cy="-168.741" r="4.519" style="fill:rgb(234,58,105);"/>
            <path d="M2825.06,-174.307C2821.99,-174.307 2819.5,-171.813 2819.5,-168.741C2819.5,-165.669 2821.99,-163.175 2825.06,-163.175C2828.13,-163.175 2830.63,-165.669 2830.63,-168.741C2830.63,-171.813 2828.13,-174.307 2825.06,-174.307ZM2825.06,-173.26C2827.56,-173.26 2829.58,-171.235 2829.58,-168.741C2829.58,-166.247 2827.56,-164.222 2825.06,-164.222C2822.57,-164.222 2820.54,-166.247 2820.54,-168.741C2820.54,-171.235 2822.57,-173.26 2825.06,-173.26Z" style="fill:white;"/>
        </g>
        <g transform="matrix(1,0,0,1,1.1323,-53.1704)">
            <circle cx="2825.06" cy="-168.741" r="4.519" style="fill:rgb(201,95,161);"/>
            <path d="M2825.06,-174.307C2821.99,-174.307 2819.5,-171.813 2819.5,-168.741C2819.5,-165.669 2821.99,-163.175 2825.06,-163.175C2828.13,-163.175 2830.63,-165.669 2830.63,-168.741C2830.63,-171.813 2828.13,-174.307 2825.06,-174.307ZM2825.06,-173.26C2827.56,-173.26 2829.58,-171.235 2829.58,-168.741C2829.58,-166.247 2827.56,-164.222 2825.06,-164.222C2822.57,-164.222 2820.54,-166.247 2820.54,-168.741C2820.54,-171.235 2822.57,-173.26 2825.06,-173.26Z" style="fill:white;"/>
        </g>
        <g transform="matrix(1,0,0,1,24.4676,-81.0424)">
            <circle cx="2825.06" cy="-168.741" r="4.519" style="fill:rgb(234,58,105);"/>
            <path d="M2825.06,-174.307C2821.99,-174.307 2819.5,-171.813 2819.5,-168.741C2819.5,-165.669 2821.99,-163.175 2825.06,-163.175C2828.13,-163.175 2830.63,-165.669 2830.63,-168.741C2830.63,-171.813 2828.13,-174.307 2825.06,-174.307ZM2825.06,-173.26C2827.56,-173.26 2829.58,-171.235 2829.58,-168.741C2829.58,-166.247 2827.56,-164.222 2825.06,-164.222C2822.57,-164.222 2820.54,-166.247 2820.54,-168.741C2820.54,-171.235 2822.57,-173.26 2825.06,-173.26Z" style="fill:white;"/>
        </g>
        <g transform="matrix(1,0,0,1,61.0969,-91.3529)">
            <circle cx="2825.06" cy="-168.741" r="4.519" style="fill:rgb(201,95,161);"/>
            <path d="M2825.06,-174.307C2821.99,-174.307 2819.5,-171.813 2819.5,-168.741C2819.5,-165.669 2821.99,-163.175 2825.06,-163.175C2828.13,-163.175 2830.63,-165.669 2830.63,-168.741C2830.63,-171.813 2828.13,-174.307 2825.06,-174.307ZM2825.06,-173.26C2827.56,-173.26 2829.58,-171.235 2829.58,-168.741C2829.58,-166.247 2827.56,-164.222 2825.06,-164.222C2822.57,-164.222 2820.54,-166.247 2820.54,-168.741C2820.54,-171.235 2822.57,-173.26 2825.06,-173.26Z" style="fill:white;"/>
        </g>
        <g transform="matrix(-1,0,0,1,5776.79,-22.4718)">
            <circle cx="2825.06" cy="-168.741" r="4.519" style="fill:rgb(234,58,105);"/>
            <path d="M2825.06,-174.307C2828.13,-174.307 2830.63,-171.813 2830.63,-168.741C2830.63,-165.669 2828.13,-163.175 2825.06,-163.175C2821.99,-163.175 2819.5,-165.669 2819.5,-168.741C2819.5,-171.813 2821.99,-174.307 2825.06,-174.307ZM2825.06,-173.26C2827.56,-173.26 2829.58,-171.235 2829.58,-168.741C2829.58,-166.247 2827.56,-164.222 2825.06,-164.222C2822.57,-164.222 2820.54,-166.247 2820.54,-168.741C2820.54,-171.235 2822.57,-173.26 2825.06,-173.26Z" style="fill:white;"/>
        </g>
        <g transform="matrix(-1,0,0,1,5770.84,-53.1704)">
            <circle cx="2825.06" cy="-168.741" r="4.519" style="fill:rgb(201,95,161);"/>
            <path d="M2825.06,-174.307C2828.13,-174.307 2830.63,-171.813 2830.63,-168.741C2830.63,-165.669 2828.13,-163.175 2825.06,-163.175C2821.99,-163.175 2819.5,-165.669 2819.5,-168.741C2819.5,-171.813 2821.99,-174.307 2825.06,-174.307ZM2825.06,-173.26C2827.56,-173.26 2829.58,-171.235 2829.58,-168.741C2829.58,-166.247 2827.56,-164.222 2825.06,-164.222C2822.57,-164.222 2820.54,-166.247 2820.54,-168.741C2820.54,-171.235 2822.57,-173.26 2825.06,-173.26Z" style="fill:white;"/>
        </g>
        <g transform="matrix(-1,0,0,1,5747.5,-81.0424)">
            <circle cx="2825.06" cy="-168.741" r="4.519" style="fill:rgb(234,58,105);"/>
            <path d="M2825.06,-174.307C2828.13,-174.307 2830.63,-171.813 2830.63,-168.741C2830.63,-165.669 2828.13,-163.175 2825.06,-163.175C2821.99,-163.175 2819.5,-165.669 2819.5,-168.741C2819.5,-171.813 2821.99,-174.307 2825.06,-174.307ZM2825.06,-173.26C2827.56,-173.26 2829.58,-171.235 2829.58,-168.741C2829.58,-166.247 2827.56,-164.222 2825.06,-164.222C2822.57,-164.222 2820.54,-166.247 2820.54,-168.741C2820.54,-171.235 2822.57,-173.26 2825.06,-173.26Z" style="fill:white;"/>
        </g>
        <path d="M2896.11,-230.845C2896.47,-230.958 2896.73,-231.022 2896.89,-231.034C2897.09,-231.05 2897.46,-231.103 2897.99,-231.195C2898.25,-231.364 2898.62,-231.479 2899.08,-231.54L2899.62,-231.731C2899.63,-231.706 2899.72,-231.738 2899.91,-231.828L2900.04,-232.617C2900.01,-233.01 2900.09,-233.412 2900.28,-233.823C2900.26,-233.995 2900.39,-234.487 2900.64,-235.299C2900.64,-235.398 2900.8,-236.128 2901.14,-237.491C2901.23,-237.621 2901.57,-237.933 2902.18,-238.426C2902.56,-238.653 2903.12,-238.561 2903.87,-238.15C2904.28,-238.009 2904.57,-237.796 2904.74,-237.513C2904.6,-237.354 2904.55,-237.004 2904.6,-236.463C2904.59,-236.289 2904.49,-235.365 2904.29,-233.693L2904.38,-232.66C2904.57,-232.651 2904.9,-232.615 2905.37,-232.552C2905.83,-232.489 2906.39,-232.421 2907.03,-232.348C2908.28,-232.199 2909.1,-231.768 2909.47,-231.055C2909.64,-230.524 2909.64,-230.141 2909.49,-229.906C2909.34,-229.671 2908.93,-229.478 2908.27,-229.328C2907.73,-229.261 2907.03,-229.193 2906.16,-229.125C2905.28,-229.057 2904.64,-228.944 2904.23,-228.789C2904.22,-228.342 2904.22,-227.996 2904.24,-227.75L2904.25,-227.194C2904.26,-227.022 2904.22,-226.103 2904.13,-224.438C2904,-224.205 2903.97,-223.052 2904.03,-220.979L2904.24,-218.286C2904.27,-217.844 2904.34,-217.428 2904.45,-217.041C2904.51,-216.502 2904.61,-216.125 2904.72,-215.912C2904.74,-215.69 2904.84,-215.228 2905.02,-214.524C2904.78,-213.788 2904.32,-213.393 2903.64,-213.341C2902.97,-213.288 2902.35,-213.487 2901.8,-213.938L2901.35,-214.496C2901.26,-214.687 2901.19,-214.818 2901.15,-214.889C2901.1,-214.96 2901.07,-215.044 2901.03,-215.14C2900.82,-215.619 2900.66,-215.915 2900.56,-216.031C2900.39,-216.216 2900.31,-216.358 2900.3,-216.456C2900.29,-216.554 2900.28,-216.677 2900.27,-216.825C2900.19,-217.239 2900.1,-217.591 2900,-217.88C2899.87,-217.993 2899.78,-218.407 2899.72,-219.12C2899.67,-220.427 2899.61,-221.177 2899.54,-221.37C2899.61,-221.449 2899.59,-221.918 2899.47,-222.774L2899.52,-223.595C2899.51,-223.693 2899.53,-224.066 2899.58,-224.713C2899.52,-224.807 2899.49,-225.071 2899.48,-225.503C2899.47,-225.935 2899.48,-226.239 2899.52,-226.415C2899.55,-226.714 2899.54,-227.085 2899.51,-227.528L2899.52,-227.863C2899,-227.871 2898.63,-227.886 2898.42,-227.906C2898.36,-227.912 2898.3,-227.917 2898.22,-227.922C2898.07,-227.872 2897.91,-227.825 2897.72,-227.782C2897.18,-227.715 2896.47,-227.648 2895.6,-227.579C2894.73,-227.511 2894.09,-227.399 2893.68,-227.243C2893.66,-226.797 2893.67,-226.45 2893.68,-226.204L2893.69,-225.648C2893.7,-225.476 2893.66,-224.558 2893.57,-222.893C2893.44,-222.66 2893.41,-221.507 2893.47,-219.433L2893.68,-216.74C2893.72,-216.298 2893.79,-215.883 2893.89,-215.495C2893.96,-214.956 2894.05,-214.58 2894.17,-214.366C2894.18,-214.145 2894.28,-213.682 2894.46,-212.979C2894.22,-212.242 2893.76,-211.848 2893.09,-211.795C2892.41,-211.742 2891.8,-211.941 2891.24,-212.392L2890.79,-212.951C2890.7,-213.142 2890.63,-213.273 2890.59,-213.343C2890.55,-213.414 2890.51,-213.498 2890.48,-213.594C2890.27,-214.073 2890.11,-214.37 2890,-214.485C2889.84,-214.67 2889.75,-214.812 2889.74,-214.91C2889.74,-215.009 2889.73,-215.131 2889.72,-215.279C2889.63,-215.693 2889.55,-216.045 2889.45,-216.334C2889.32,-216.448 2889.22,-216.861 2889.16,-217.574C2889.11,-218.881 2889.05,-219.631 2888.99,-219.824C2889.06,-219.904 2889.03,-220.372 2888.92,-221.229L2888.96,-222.049C2888.95,-222.147 2888.98,-222.52 2889.02,-223.167C2888.97,-223.262 2888.93,-223.525 2888.93,-223.957C2888.92,-224.39 2888.93,-224.694 2888.97,-224.87C2888.99,-225.169 2888.99,-225.539 2888.95,-225.982L2888.96,-226.317C2888.44,-226.326 2888.08,-226.34 2887.86,-226.361C2887.65,-226.381 2887.31,-226.398 2886.84,-226.41C2886.37,-226.423 2885.99,-226.468 2885.72,-226.545C2885.19,-226.677 2884.86,-227.102 2884.72,-227.822C2884.6,-228.542 2884.79,-229.009 2885.32,-229.223C2885.8,-229.385 2886.14,-229.473 2886.34,-229.489C2886.54,-229.504 2886.9,-229.558 2887.44,-229.649C2887.7,-229.818 2888.06,-229.933 2888.53,-229.994L2889.07,-230.185C2889.07,-230.16 2889.17,-230.193 2889.36,-230.282L2889.48,-231.071C2889.45,-231.464 2889.53,-231.866 2889.72,-232.277C2889.71,-232.449 2889.83,-232.941 2890.09,-233.753C2890.08,-233.852 2890.24,-234.582 2890.58,-235.945C2890.67,-236.076 2891.02,-236.387 2891.62,-236.88C2892,-237.108 2892.57,-237.016 2893.32,-236.604C2893.72,-236.463 2894.01,-236.251 2894.18,-235.967C2894.05,-235.808 2894,-235.458 2894.04,-234.917C2894.03,-234.743 2893.93,-233.819 2893.74,-232.147L2893.82,-231.114C2894.02,-231.105 2894.35,-231.069 2894.81,-231.006C2895.18,-230.956 2895.62,-230.902 2896.11,-230.845Z" style="fill:rgb(234,58,105);fill-rule:nonzero;"/>
        <path d="M2899.68,-235.476C2899.73,-235.847 2899.89,-236.601 2900.17,-237.732C2900.2,-237.846 2900.24,-237.955 2900.31,-238.052C2900.42,-238.21 2900.82,-238.607 2901.55,-239.201C2901.58,-239.231 2901.62,-239.258 2901.66,-239.283C2902.25,-239.634 2903.14,-239.673 2904.28,-239.064C2904.9,-238.832 2905.33,-238.472 2905.59,-238.028C2905.79,-237.708 2905.78,-237.311 2905.59,-236.998C2905.59,-236.92 2905.58,-236.713 2905.59,-236.541C2905.6,-236.494 2905.6,-236.446 2905.6,-236.399C2905.58,-236.225 2905.49,-235.317 2905.3,-233.675L2905.31,-233.568L2905.5,-233.543C2905.96,-233.481 2906.51,-233.414 2907.15,-233.341C2908.82,-233.142 2909.85,-232.474 2910.36,-231.523C2910.39,-231.468 2910.41,-231.411 2910.43,-231.352C2910.72,-230.428 2910.59,-229.764 2910.33,-229.355C2910.09,-228.992 2909.51,-228.586 2908.5,-228.353C2908.46,-228.346 2908.43,-228.34 2908.4,-228.336C2907.85,-228.267 2907.13,-228.198 2906.23,-228.128C2905.84,-228.098 2905.51,-228.061 2905.23,-228.013C2905.23,-227.946 2905.23,-227.884 2905.24,-227.828L2905.25,-227.206L2905.25,-227.224C2905.25,-226.956 2905.22,-226.009 2905.13,-224.383C2905.12,-224.276 2905.1,-224.17 2905.06,-224.071C2905.05,-223.927 2904.98,-222.63 2905.03,-221.031L2905.24,-218.364C2905.27,-217.987 2905.33,-217.632 2905.41,-217.301C2905.43,-217.256 2905.43,-217.21 2905.44,-217.164C2905.49,-216.796 2905.52,-216.534 2905.6,-216.388C2905.67,-216.265 2905.71,-216.129 2905.72,-215.99C2905.74,-215.795 2905.83,-215.39 2905.99,-214.771C2906.03,-214.588 2906.03,-214.395 2905.97,-214.215C2905.58,-213.028 2904.81,-212.429 2903.72,-212.344C2902.79,-212.27 2901.93,-212.538 2901.17,-213.162C2901.11,-213.206 2901.06,-213.255 2901.02,-213.309L2900.57,-213.867C2900.52,-213.93 2900.47,-214 2900.44,-214.073C2900.37,-214.219 2900.32,-214.32 2900.29,-214.374C2900.22,-214.487 2900.16,-214.618 2900.11,-214.768C2899.97,-215.06 2899.82,-215.341 2899.8,-215.373C2899.44,-215.791 2899.32,-216.155 2899.3,-216.378L2899.28,-216.686C2899.22,-216.963 2899.16,-217.208 2899.1,-217.42C2899.05,-217.503 2899,-217.6 2898.96,-217.713C2898.86,-217.972 2898.77,-218.413 2898.72,-219.042L2898.72,-219.079C2898.68,-220.151 2898.59,-221.064 2898.59,-221.091C2898.53,-221.269 2898.53,-221.455 2898.58,-221.629C2898.57,-221.766 2898.54,-222.211 2898.48,-222.64C2898.47,-222.703 2898.47,-222.768 2898.47,-222.832L2898.52,-223.642C2898.52,-223.82 2898.54,-224.152 2898.57,-224.636C2898.53,-224.848 2898.49,-225.129 2898.48,-225.482C2898.47,-225.959 2898.49,-226.31 2898.53,-226.536C2898.53,-226.645 2898.54,-226.765 2898.54,-226.895C2898.46,-226.9 2898.39,-226.905 2898.34,-226.91C2898.21,-226.874 2898.08,-226.84 2897.94,-226.808C2897.91,-226.8 2897.88,-226.794 2897.84,-226.79C2897.29,-226.721 2896.57,-226.652 2895.68,-226.582C2895.29,-226.552 2894.95,-226.515 2894.67,-226.467C2894.67,-226.4 2894.68,-226.338 2894.68,-226.283L2894.69,-225.66L2894.69,-225.678C2894.7,-225.41 2894.66,-224.463 2894.57,-222.837C2894.57,-222.73 2894.54,-222.624 2894.5,-222.525C2894.49,-222.382 2894.42,-221.084 2894.47,-219.486L2894.68,-216.819C2894.71,-216.441 2894.77,-216.086 2894.86,-215.755C2894.87,-215.71 2894.88,-215.665 2894.89,-215.618C2894.93,-215.25 2894.97,-214.988 2895.05,-214.842C2895.11,-214.719 2895.15,-214.583 2895.16,-214.444C2895.18,-214.249 2895.27,-213.844 2895.43,-213.225C2895.48,-213.042 2895.47,-212.849 2895.41,-212.67C2895.03,-211.482 2894.26,-210.883 2893.17,-210.798C2892.23,-210.725 2891.38,-210.992 2890.61,-211.617C2890.56,-211.66 2890.51,-211.709 2890.46,-211.763L2890.01,-212.322C2889.96,-212.385 2889.92,-212.454 2889.88,-212.528C2889.82,-212.673 2889.77,-212.774 2889.74,-212.828C2889.67,-212.941 2889.6,-213.072 2889.55,-213.222C2889.42,-213.514 2889.26,-213.796 2889.25,-213.827C2888.88,-214.246 2888.76,-214.609 2888.75,-214.832L2888.72,-215.14C2888.67,-215.417 2888.61,-215.662 2888.55,-215.874C2888.49,-215.957 2888.44,-216.054 2888.4,-216.167C2888.3,-216.426 2888.22,-216.867 2888.17,-217.496L2888.17,-217.534C2888.12,-218.605 2888.03,-219.519 2888.03,-219.545C2887.98,-219.723 2887.98,-219.909 2888.02,-220.083C2888.01,-220.22 2887.98,-220.665 2887.93,-221.094C2887.92,-221.158 2887.91,-221.222 2887.92,-221.286L2887.96,-222.096C2887.97,-222.274 2887.98,-222.606 2888.02,-223.09C2887.97,-223.303 2887.93,-223.584 2887.93,-223.936C2887.91,-224.414 2887.93,-224.765 2887.97,-224.99C2887.98,-225.099 2887.98,-225.219 2887.98,-225.349C2887.9,-225.354 2887.83,-225.36 2887.77,-225.365C2887.57,-225.385 2887.25,-225.399 2886.81,-225.411C2886.24,-225.426 2885.79,-225.487 2885.46,-225.58C2884.58,-225.804 2883.96,-226.45 2883.74,-227.643C2883.61,-228.38 2883.73,-228.954 2884,-229.38C2884.21,-229.714 2884.52,-229.978 2884.94,-230.15C2884.96,-230.158 2884.98,-230.165 2885,-230.172C2885.6,-230.37 2886.02,-230.467 2886.26,-230.486C2886.42,-230.498 2886.7,-230.539 2887.1,-230.606C2887.41,-230.77 2887.8,-230.897 2888.29,-230.97L2888.46,-231.032L2888.48,-231.123C2888.46,-231.593 2888.55,-232.072 2888.75,-232.559C2888.8,-232.884 2888.92,-233.385 2889.13,-234.056L2889.12,-233.93C2889.18,-234.301 2889.33,-235.055 2889.61,-236.186C2889.64,-236.301 2889.69,-236.409 2889.76,-236.507C2889.86,-236.664 2890.26,-237.061 2890.99,-237.655C2891.03,-237.685 2891.07,-237.712 2891.11,-237.737C2891.69,-238.088 2892.58,-238.128 2893.73,-237.518C2894.35,-237.287 2894.77,-236.926 2895.04,-236.483C2895.23,-236.162 2895.23,-235.765 2895.04,-235.452C2895.03,-235.374 2895.03,-235.167 2895.04,-234.995C2895.04,-234.948 2895.04,-234.9 2895.04,-234.853C2895.03,-234.679 2894.93,-233.771 2894.74,-232.129L2894.75,-232.022L2896.02,-231.863C2896.37,-231.965 2896.64,-232.018 2896.82,-232.031C2896.97,-232.044 2897.25,-232.085 2897.65,-232.152C2897.97,-232.315 2898.36,-232.443 2898.84,-232.516L2899.02,-232.578L2899.03,-232.668C2899.01,-233.138 2899.1,-233.618 2899.31,-234.105C2899.36,-234.43 2899.48,-234.931 2899.69,-235.602L2899.68,-235.476ZM2896.11,-230.845C2896.47,-230.958 2896.73,-231.022 2896.89,-231.034C2897.09,-231.05 2897.46,-231.103 2897.99,-231.195C2898.25,-231.364 2898.62,-231.479 2899.08,-231.54L2899.62,-231.731C2899.63,-231.706 2899.72,-231.738 2899.91,-231.828L2900.04,-232.617C2900.01,-233.01 2900.09,-233.412 2900.28,-233.823C2900.26,-233.995 2900.39,-234.487 2900.64,-235.299C2900.64,-235.398 2900.8,-236.128 2901.14,-237.491C2901.23,-237.621 2901.57,-237.933 2902.18,-238.426C2902.56,-238.653 2903.12,-238.561 2903.87,-238.15C2904.28,-238.009 2904.57,-237.796 2904.74,-237.513C2904.6,-237.354 2904.55,-237.004 2904.6,-236.463C2904.59,-236.289 2904.49,-235.365 2904.29,-233.693L2904.38,-232.66C2904.57,-232.651 2904.9,-232.615 2905.37,-232.552C2905.83,-232.489 2906.39,-232.421 2907.03,-232.348C2908.28,-232.199 2909.1,-231.768 2909.47,-231.055C2909.64,-230.524 2909.64,-230.141 2909.49,-229.906C2909.34,-229.671 2908.93,-229.478 2908.27,-229.328C2907.73,-229.261 2907.03,-229.193 2906.16,-229.125C2905.28,-229.057 2904.64,-228.944 2904.23,-228.789C2904.22,-228.342 2904.22,-227.996 2904.24,-227.75L2904.25,-227.194C2904.26,-227.022 2904.22,-226.103 2904.13,-224.438C2904,-224.205 2903.97,-223.052 2904.03,-220.979L2904.24,-218.286C2904.27,-217.844 2904.34,-217.428 2904.45,-217.041C2904.51,-216.502 2904.61,-216.125 2904.72,-215.912C2904.74,-215.69 2904.84,-215.228 2905.02,-214.524C2904.78,-213.788 2904.32,-213.393 2903.64,-213.341C2902.97,-213.288 2902.35,-213.487 2901.8,-213.938L2901.35,-214.496C2901.26,-214.687 2901.19,-214.818 2901.15,-214.889C2901.1,-214.96 2901.07,-215.044 2901.03,-215.14C2900.82,-215.619 2900.66,-215.915 2900.56,-216.031C2900.39,-216.216 2900.31,-216.358 2900.3,-216.456C2900.29,-216.554 2900.28,-216.677 2900.27,-216.825C2900.19,-217.239 2900.1,-217.591 2900,-217.88C2899.87,-217.993 2899.78,-218.407 2899.72,-219.12C2899.67,-220.427 2899.61,-221.177 2899.54,-221.37C2899.61,-221.449 2899.59,-221.918 2899.47,-222.774L2899.52,-223.595C2899.51,-223.693 2899.53,-224.066 2899.58,-224.713C2899.52,-224.807 2899.49,-225.071 2899.48,-225.503C2899.47,-225.935 2899.48,-226.239 2899.52,-226.415C2899.55,-226.714 2899.54,-227.085 2899.51,-227.528L2899.52,-227.863C2899,-227.871 2898.63,-227.886 2898.42,-227.906C2898.36,-227.912 2898.3,-227.917 2898.22,-227.922C2898.07,-227.872 2897.91,-227.825 2897.72,-227.782C2897.18,-227.715 2896.47,-227.648 2895.6,-227.579C2894.73,-227.511 2894.09,-227.399 2893.68,-227.243C2893.66,-226.797 2893.67,-226.45 2893.68,-226.204L2893.69,-225.648C2893.7,-225.476 2893.66,-224.558 2893.57,-222.893C2893.44,-222.66 2893.41,-221.507 2893.47,-219.433L2893.68,-216.74C2893.72,-216.298 2893.79,-215.883 2893.89,-215.495C2893.96,-214.956 2894.05,-214.58 2894.17,-214.366C2894.18,-214.145 2894.28,-213.682 2894.46,-212.979C2894.22,-212.242 2893.76,-211.848 2893.09,-211.795C2892.41,-211.742 2891.8,-211.941 2891.24,-212.392L2890.79,-212.951C2890.7,-213.142 2890.63,-213.273 2890.59,-213.343C2890.55,-213.414 2890.51,-213.498 2890.48,-213.594C2890.27,-214.073 2890.11,-214.37 2890,-214.485C2889.84,-214.67 2889.75,-214.812 2889.74,-214.91C2889.74,-215.009 2889.73,-215.131 2889.72,-215.279C2889.63,-215.693 2889.55,-216.045 2889.45,-216.334C2889.32,-216.448 2889.22,-216.861 2889.16,-217.574C2889.11,-218.881 2889.05,-219.631 2888.99,-219.824C2889.06,-219.904 2889.03,-220.372 2888.92,-221.229L2888.96,-222.049C2888.95,-222.147 2888.98,-222.52 2889.02,-223.167C2888.97,-223.262 2888.93,-223.525 2888.93,-223.957C2888.92,-224.39 2888.93,-224.694 2888.97,-224.87C2888.99,-225.169 2888.99,-225.539 2888.95,-225.982L2888.96,-226.317C2888.44,-226.326 2888.08,-226.34 2887.86,-226.361C2887.65,-226.381 2887.31,-226.398 2886.84,-226.41C2886.37,-226.423 2885.99,-226.468 2885.72,-226.545C2885.19,-226.677 2884.86,-227.102 2884.72,-227.822C2884.6,-228.542 2884.79,-229.009 2885.32,-229.223C2885.8,-229.385 2886.14,-229.473 2886.34,-229.489C2886.54,-229.504 2886.9,-229.558 2887.44,-229.649C2887.7,-229.818 2888.06,-229.933 2888.53,-229.994L2889.07,-230.185C2889.07,-230.16 2889.17,-230.193 2889.36,-230.282L2889.48,-231.071C2889.45,-231.464 2889.53,-231.866 2889.72,-232.277C2889.71,-232.449 2889.83,-232.941 2890.09,-233.753C2890.08,-233.852 2890.24,-234.582 2890.58,-235.945C2890.67,-236.076 2891.02,-236.387 2891.62,-236.88C2892,-237.108 2892.57,-237.016 2893.32,-236.604C2893.72,-236.463 2894.01,-236.251 2894.18,-235.967C2894.05,-235.808 2894,-235.458 2894.04,-234.917C2894.03,-234.743 2893.93,-233.819 2893.74,-232.147L2893.82,-231.114C2894.02,-231.105 2894.35,-231.069 2894.81,-231.006C2895.18,-230.956 2895.62,-230.902 2896.11,-230.845ZM2885.45,-225.581L2885.47,-225.575L2885.45,-225.581Z" style="fill:white;"/>
        <path d="M2904.49,-203.803C2904.78,-203.895 2905,-203.946 2905.13,-203.956C2905.29,-203.969 2905.59,-204.012 2906.02,-204.086C2906.23,-204.223 2906.52,-204.316 2906.9,-204.366L2907.34,-204.52C2907.34,-204.5 2907.42,-204.526 2907.57,-204.599L2907.67,-205.238C2907.65,-205.556 2907.71,-205.882 2907.87,-206.215C2907.86,-206.354 2907.95,-206.753 2908.16,-207.41C2908.16,-207.49 2908.29,-208.081 2908.57,-209.185C2908.64,-209.291 2908.92,-209.543 2909.41,-209.942C2909.71,-210.126 2910.17,-210.052 2910.78,-209.719C2911.11,-209.604 2911.34,-209.432 2911.48,-209.203C2911.37,-209.074 2911.33,-208.79 2911.37,-208.352C2911.36,-208.211 2911.28,-207.464 2911.12,-206.109L2911.19,-205.272C2911.35,-205.265 2911.62,-205.236 2911.99,-205.185C2912.37,-205.134 2912.82,-205.079 2913.34,-205.02C2914.35,-204.899 2915.01,-204.55 2915.32,-203.973C2915.45,-203.543 2915.45,-203.232 2915.33,-203.042C2915.2,-202.852 2914.88,-202.696 2914.34,-202.574C2913.91,-202.52 2913.34,-202.465 2912.63,-202.41C2911.92,-202.354 2911.4,-202.264 2911.07,-202.138C2911.06,-201.776 2911.06,-201.496 2911.08,-201.296L2911.08,-200.846C2911.09,-200.707 2911.06,-199.963 2910.99,-198.614C2910.88,-198.426 2910.86,-197.492 2910.91,-195.813L2911.08,-193.632C2911.11,-193.274 2911.16,-192.937 2911.25,-192.623C2911.3,-192.187 2911.37,-191.882 2911.47,-191.709C2911.48,-191.53 2911.56,-191.155 2911.71,-190.586C2911.51,-189.989 2911.14,-189.67 2910.59,-189.627C2910.05,-189.584 2909.55,-189.745 2909.1,-190.111L2908.73,-190.563C2908.66,-190.718 2908.61,-190.824 2908.57,-190.881C2908.54,-190.938 2908.51,-191.006 2908.48,-191.084C2908.31,-191.472 2908.18,-191.712 2908.09,-191.805C2907.96,-191.955 2907.89,-192.07 2907.89,-192.15C2907.88,-192.229 2907.87,-192.329 2907.86,-192.448C2907.8,-192.784 2907.72,-193.069 2907.65,-193.303C2907.54,-193.395 2907.46,-193.73 2907.42,-194.307C2907.37,-195.366 2907.33,-195.973 2907.27,-196.129C2907.33,-196.194 2907.31,-196.573 2907.22,-197.267L2907.25,-197.931C2907.25,-198.011 2907.26,-198.313 2907.3,-198.837C2907.26,-198.913 2907.23,-199.127 2907.22,-199.477C2907.22,-199.827 2907.23,-200.073 2907.26,-200.215C2907.28,-200.458 2907.27,-200.758 2907.24,-201.116L2907.25,-201.388C2906.83,-201.395 2906.53,-201.406 2906.36,-201.423C2906.32,-201.428 2906.26,-201.432 2906.2,-201.436C2906.08,-201.395 2905.95,-201.357 2905.8,-201.322C2905.36,-201.268 2904.79,-201.213 2904.08,-201.158C2903.37,-201.103 2902.85,-201.012 2902.52,-200.886C2902.51,-200.524 2902.51,-200.244 2902.53,-200.045L2902.53,-199.594C2902.55,-199.455 2902.51,-198.711 2902.44,-197.363C2902.33,-197.174 2902.31,-196.24 2902.36,-194.561L2902.53,-192.38C2902.56,-192.022 2902.61,-191.685 2902.7,-191.372C2902.75,-190.935 2902.83,-190.63 2902.92,-190.457C2902.93,-190.278 2903.01,-189.903 2903.16,-189.334C2902.96,-188.737 2902.59,-188.418 2902.05,-188.375C2901.5,-188.332 2901,-188.493 2900.55,-188.859L2900.18,-189.311C2900.11,-189.466 2900.06,-189.572 2900.02,-189.629C2899.99,-189.687 2899.96,-189.754 2899.93,-189.832C2899.76,-190.22 2899.63,-190.46 2899.55,-190.554C2899.41,-190.703 2899.35,-190.818 2899.34,-190.898C2899.33,-190.978 2899.32,-191.077 2899.32,-191.197C2899.25,-191.532 2899.18,-191.817 2899.1,-192.051C2898.99,-192.143 2898.91,-192.478 2898.87,-193.055C2898.83,-194.114 2898.78,-194.721 2898.73,-194.878C2898.78,-194.942 2898.76,-195.321 2898.67,-196.015L2898.7,-196.679C2898.7,-196.759 2898.72,-197.061 2898.75,-197.585C2898.71,-197.661 2898.68,-197.875 2898.67,-198.225C2898.67,-198.575 2898.68,-198.821 2898.71,-198.964C2898.73,-199.206 2898.72,-199.506 2898.7,-199.865L2898.7,-200.136C2898.28,-200.143 2897.99,-200.155 2897.82,-200.171C2897.64,-200.188 2897.37,-200.201 2896.99,-200.211C2896.6,-200.222 2896.3,-200.258 2896.08,-200.32C2895.65,-200.427 2895.38,-200.772 2895.27,-201.355C2895.17,-201.937 2895.33,-202.316 2895.76,-202.489C2896.15,-202.62 2896.42,-202.692 2896.58,-202.704C2896.74,-202.717 2897.04,-202.76 2897.47,-202.834C2897.68,-202.971 2897.97,-203.064 2898.35,-203.114L2898.79,-203.268C2898.79,-203.248 2898.87,-203.275 2899.02,-203.347L2899.13,-203.986C2899.1,-204.304 2899.16,-204.63 2899.32,-204.963C2899.31,-205.102 2899.41,-205.501 2899.62,-206.158C2899.61,-206.238 2899.74,-206.83 2900.02,-207.933C2900.09,-208.039 2900.37,-208.291 2900.86,-208.69C2901.17,-208.875 2901.62,-208.8 2902.23,-208.467C2902.56,-208.353 2902.79,-208.181 2902.93,-207.951C2902.82,-207.822 2902.78,-207.539 2902.82,-207.1C2902.81,-206.96 2902.73,-206.212 2902.57,-204.857L2902.64,-204.021C2902.8,-204.013 2903.07,-203.984 2903.44,-203.933C2903.74,-203.892 2904.09,-203.849 2904.49,-203.803Z" style="fill:rgb(234,58,105);fill-rule:nonzero;"/>
        <path d="M2907.2,-207.573C2907.24,-207.892 2907.37,-208.512 2907.6,-209.426C2907.62,-209.541 2907.67,-209.649 2907.74,-209.747C2907.83,-209.879 2908.16,-210.217 2908.78,-210.717C2908.81,-210.747 2908.85,-210.775 2908.89,-210.799C2909.41,-211.107 2910.18,-211.163 2911.19,-210.633C2911.73,-210.428 2912.1,-210.108 2912.34,-209.718C2912.52,-209.412 2912.53,-209.035 2912.36,-208.729L2912.36,-208.289C2912.36,-208.151 2912.28,-207.446 2912.14,-206.175C2912.5,-206.125 2912.94,-206.072 2913.46,-206.013C2914.89,-205.842 2915.77,-205.257 2916.2,-204.441C2916.23,-204.386 2916.25,-204.329 2916.27,-204.27C2916.53,-203.446 2916.4,-202.856 2916.16,-202.492C2915.95,-202.173 2915.46,-201.804 2914.57,-201.6C2914.53,-201.592 2914.5,-201.586 2914.47,-201.582C2914.02,-201.526 2913.43,-201.47 2912.71,-201.413C2912.47,-201.394 2912.26,-201.373 2912.08,-201.348L2912.08,-200.858L2912.08,-200.924C2912.09,-200.776 2912.07,-199.988 2911.99,-198.559C2911.98,-198.458 2911.96,-198.359 2911.92,-198.265C2911.92,-198.136 2911.87,-197.118 2911.91,-195.865L2912.07,-193.71C2912.1,-193.417 2912.14,-193.141 2912.21,-192.884C2912.22,-192.839 2912.23,-192.793 2912.24,-192.747C2912.27,-192.481 2912.29,-192.29 2912.35,-192.185C2912.41,-192.062 2912.45,-191.927 2912.47,-191.787C2912.48,-191.634 2912.55,-191.317 2912.68,-190.832C2912.72,-190.649 2912.72,-190.456 2912.66,-190.277C2912.32,-189.229 2911.63,-188.705 2910.67,-188.63C2909.87,-188.567 2909.13,-188.797 2908.47,-189.335C2908.41,-189.379 2908.37,-189.428 2908.32,-189.482L2907.95,-189.934C2907.9,-189.997 2907.86,-190.066 2907.83,-190.14C2907.78,-190.249 2907.74,-190.325 2907.72,-190.365C2907.66,-190.465 2907.6,-190.58 2907.55,-190.712C2907.46,-190.914 2907.35,-191.124 2907.33,-191.161C2907,-191.539 2906.91,-191.87 2906.89,-192.072L2906.87,-192.307C2906.83,-192.512 2906.79,-192.694 2906.74,-192.852C2906.7,-192.924 2906.66,-193.007 2906.62,-193.101C2906.54,-193.321 2906.46,-193.695 2906.42,-194.229L2906.42,-194.267C2906.38,-195.096 2906.32,-195.807 2906.31,-195.861C2906.26,-196.026 2906.26,-196.197 2906.3,-196.358C2906.29,-196.478 2906.27,-196.811 2906.22,-197.132C2906.22,-197.196 2906.21,-197.26 2906.22,-197.324L2906.26,-197.987C2906.26,-198.138 2906.27,-198.397 2906.3,-198.764C2906.26,-198.944 2906.23,-199.174 2906.22,-199.455C2906.21,-199.851 2906.23,-200.144 2906.26,-200.335L2906.26,-200.41L2905.92,-200.33C2905.47,-200.274 2904.88,-200.218 2904.16,-200.161C2903.92,-200.143 2903.71,-200.122 2903.53,-200.096L2903.53,-199.606L2903.53,-199.672C2903.54,-199.525 2903.52,-198.736 2903.44,-197.307C2903.43,-197.206 2903.41,-197.107 2903.38,-197.013C2903.37,-196.884 2903.32,-195.866 2903.36,-194.613L2903.53,-192.458C2903.55,-192.165 2903.59,-191.889 2903.66,-191.632C2903.68,-191.587 2903.68,-191.541 2903.69,-191.495C2903.72,-191.229 2903.74,-191.039 2903.8,-190.933C2903.87,-190.81 2903.91,-190.675 2903.92,-190.535C2903.93,-190.383 2904,-190.065 2904.13,-189.58C2904.17,-189.397 2904.17,-189.204 2904.11,-189.025C2903.77,-187.977 2903.09,-187.453 2902.12,-187.378C2901.32,-187.315 2900.58,-187.545 2899.92,-188.083C2899.87,-188.127 2899.82,-188.176 2899.77,-188.23L2899.41,-188.682C2899.36,-188.745 2899.31,-188.814 2899.28,-188.888C2899.23,-188.997 2899.19,-189.073 2899.17,-189.113C2899.11,-189.213 2899.05,-189.329 2899,-189.46C2898.91,-189.662 2898.8,-189.873 2898.78,-189.909C2898.45,-190.287 2898.36,-190.618 2898.34,-190.82L2898.32,-191.055C2898.28,-191.26 2898.24,-191.442 2898.19,-191.601C2898.15,-191.672 2898.11,-191.755 2898.07,-191.849C2897.99,-192.069 2897.91,-192.443 2897.87,-192.977L2897.87,-193.015C2897.84,-193.845 2897.77,-194.555 2897.76,-194.61C2897.72,-194.774 2897.72,-194.945 2897.75,-195.107C2897.74,-195.226 2897.72,-195.559 2897.68,-195.88C2897.67,-195.944 2897.66,-196.008 2897.67,-196.072L2897.71,-196.735C2897.71,-196.886 2897.72,-197.145 2897.75,-197.512C2897.71,-197.692 2897.68,-197.922 2897.67,-198.204C2897.67,-198.599 2897.68,-198.892 2897.71,-199.084L2897.72,-199.176C2897.56,-199.191 2897.31,-199.202 2896.96,-199.212C2896.48,-199.225 2896.1,-199.277 2895.82,-199.355C2895.04,-199.554 2894.48,-200.12 2894.29,-201.176C2894.17,-201.831 2894.29,-202.34 2894.53,-202.719C2894.72,-203.021 2895,-203.26 2895.38,-203.416C2895.4,-203.424 2895.42,-203.431 2895.44,-203.438C2895.94,-203.606 2896.3,-203.685 2896.5,-203.701C2896.62,-203.711 2896.83,-203.742 2897.14,-203.792C2897.39,-203.924 2897.72,-204.028 2898.11,-204.089L2898.12,-204.092C2898.12,-204.472 2898.19,-204.859 2898.35,-205.251C2898.4,-205.527 2898.49,-205.932 2898.66,-206.461L2898.65,-206.322C2898.7,-206.64 2898.82,-207.26 2899.05,-208.174C2899.08,-208.289 2899.12,-208.397 2899.19,-208.495C2899.28,-208.628 2899.61,-208.965 2900.23,-209.466C2900.26,-209.495 2900.3,-209.523 2900.34,-209.547C2900.86,-209.855 2901.64,-209.911 2902.64,-209.381C2903.18,-209.176 2903.55,-208.856 2903.79,-208.467C2903.97,-208.16 2903.98,-207.783 2903.81,-207.477L2903.82,-207.037C2903.81,-206.899 2903.73,-206.194 2903.59,-204.923L2904.41,-204.82C2904.69,-204.901 2904.91,-204.942 2905.05,-204.953C2905.17,-204.963 2905.38,-204.994 2905.68,-205.044C2905.94,-205.176 2906.27,-205.28 2906.66,-205.341L2906.67,-205.344C2906.66,-205.724 2906.74,-206.11 2906.9,-206.503C2906.95,-206.779 2907.04,-207.184 2907.21,-207.713L2907.2,-207.573ZM2904.49,-203.803C2904.78,-203.895 2905,-203.946 2905.13,-203.956C2905.29,-203.969 2905.59,-204.012 2906.02,-204.086C2906.23,-204.223 2906.52,-204.316 2906.9,-204.366L2907.34,-204.52C2907.34,-204.5 2907.42,-204.526 2907.57,-204.599L2907.67,-205.238C2907.65,-205.556 2907.71,-205.882 2907.87,-206.215C2907.86,-206.354 2907.95,-206.753 2908.16,-207.41C2908.16,-207.49 2908.29,-208.081 2908.57,-209.185C2908.64,-209.291 2908.92,-209.543 2909.41,-209.942C2909.71,-210.126 2910.17,-210.052 2910.78,-209.719C2911.11,-209.604 2911.34,-209.432 2911.48,-209.203C2911.37,-209.074 2911.33,-208.79 2911.37,-208.352C2911.36,-208.211 2911.28,-207.464 2911.12,-206.109L2911.19,-205.272C2911.35,-205.265 2911.62,-205.236 2911.99,-205.185C2912.37,-205.134 2912.82,-205.079 2913.34,-205.02C2914.35,-204.899 2915.01,-204.55 2915.32,-203.973C2915.45,-203.543 2915.45,-203.232 2915.33,-203.042C2915.2,-202.852 2914.88,-202.696 2914.34,-202.574C2913.91,-202.52 2913.34,-202.465 2912.63,-202.41C2911.92,-202.354 2911.4,-202.264 2911.07,-202.138C2911.06,-201.776 2911.06,-201.496 2911.08,-201.296L2911.08,-200.846C2911.09,-200.707 2911.06,-199.963 2910.99,-198.614C2910.88,-198.426 2910.86,-197.492 2910.91,-195.813L2911.08,-193.632C2911.11,-193.274 2911.16,-192.937 2911.25,-192.623C2911.3,-192.187 2911.37,-191.882 2911.47,-191.709C2911.48,-191.53 2911.56,-191.155 2911.71,-190.586C2911.51,-189.989 2911.14,-189.67 2910.59,-189.627C2910.05,-189.584 2909.55,-189.745 2909.1,-190.111L2908.73,-190.563C2908.66,-190.718 2908.61,-190.824 2908.57,-190.881C2908.54,-190.938 2908.51,-191.006 2908.48,-191.084C2908.31,-191.472 2908.18,-191.712 2908.09,-191.805C2907.96,-191.955 2907.89,-192.07 2907.89,-192.15C2907.88,-192.229 2907.87,-192.329 2907.86,-192.448C2907.8,-192.784 2907.72,-193.069 2907.65,-193.303C2907.54,-193.395 2907.46,-193.73 2907.42,-194.307C2907.37,-195.366 2907.33,-195.973 2907.27,-196.129C2907.33,-196.194 2907.31,-196.573 2907.22,-197.267L2907.25,-197.931C2907.25,-198.011 2907.26,-198.313 2907.3,-198.837C2907.26,-198.913 2907.23,-199.127 2907.22,-199.477C2907.22,-199.827 2907.23,-200.073 2907.26,-200.215C2907.28,-200.458 2907.27,-200.758 2907.24,-201.116L2907.25,-201.388C2906.83,-201.395 2906.53,-201.406 2906.36,-201.423C2906.32,-201.428 2906.26,-201.432 2906.2,-201.436C2906.08,-201.395 2905.95,-201.357 2905.8,-201.322C2905.36,-201.268 2904.79,-201.213 2904.08,-201.158C2903.37,-201.103 2902.85,-201.012 2902.52,-200.886C2902.51,-200.524 2902.51,-200.244 2902.53,-200.045L2902.53,-199.594C2902.55,-199.455 2902.51,-198.711 2902.44,-197.363C2902.33,-197.174 2902.31,-196.24 2902.36,-194.561L2902.53,-192.38C2902.56,-192.022 2902.61,-191.685 2902.7,-191.372C2902.75,-190.935 2902.83,-190.63 2902.92,-190.457C2902.93,-190.278 2903.01,-189.903 2903.16,-189.334C2902.96,-188.737 2902.59,-188.418 2902.05,-188.375C2901.5,-188.332 2901,-188.493 2900.55,-188.859L2900.18,-189.311C2900.11,-189.466 2900.06,-189.572 2900.02,-189.629C2899.99,-189.687 2899.96,-189.754 2899.93,-189.832C2899.76,-190.22 2899.63,-190.46 2899.55,-190.554C2899.41,-190.703 2899.35,-190.818 2899.34,-190.898C2899.33,-190.978 2899.32,-191.077 2899.32,-191.197C2899.25,-191.532 2899.18,-191.817 2899.1,-192.051C2898.99,-192.143 2898.91,-192.478 2898.87,-193.055C2898.83,-194.114 2898.78,-194.721 2898.73,-194.878C2898.78,-194.942 2898.76,-195.321 2898.67,-196.015L2898.7,-196.679C2898.7,-196.759 2898.72,-197.061 2898.75,-197.585C2898.71,-197.661 2898.68,-197.875 2898.67,-198.225C2898.67,-198.575 2898.68,-198.821 2898.71,-198.964C2898.73,-199.206 2898.72,-199.506 2898.7,-199.865L2898.7,-200.136C2898.28,-200.143 2897.99,-200.155 2897.82,-200.171C2897.64,-200.188 2897.37,-200.201 2896.99,-200.211C2896.6,-200.222 2896.3,-200.258 2896.08,-200.32C2895.65,-200.427 2895.38,-200.772 2895.27,-201.355C2895.17,-201.937 2895.33,-202.316 2895.76,-202.489C2896.15,-202.62 2896.42,-202.692 2896.58,-202.704C2896.74,-202.717 2897.04,-202.76 2897.47,-202.834C2897.68,-202.971 2897.97,-203.064 2898.35,-203.114L2898.79,-203.268C2898.79,-203.248 2898.87,-203.275 2899.02,-203.347L2899.13,-203.986C2899.1,-204.304 2899.16,-204.63 2899.32,-204.963C2899.31,-205.102 2899.41,-205.501 2899.62,-206.158C2899.61,-206.238 2899.74,-206.83 2900.02,-207.933C2900.09,-208.039 2900.37,-208.291 2900.86,-208.69C2901.17,-208.875 2901.62,-208.8 2902.23,-208.467C2902.56,-208.353 2902.79,-208.181 2902.93,-207.951C2902.82,-207.822 2902.78,-207.539 2902.82,-207.1C2902.81,-206.96 2902.73,-206.212 2902.57,-204.857L2902.64,-204.021C2902.8,-204.013 2903.07,-203.984 2903.44,-203.933C2903.74,-203.892 2904.09,-203.849 2904.49,-203.803Z" style="fill:white;"/>
    </g>
</svg>
